<?xml version="1.0" encoding="UTF-8"?>
<!DOCTYPE svg PUBLIC "-//W3C//DTD SVG 1.1//EN" "http://www.w3.org/Graphics/SVG/1.1/DTD/svg11.dtd">
<!-- Creator: CorelDRAW X7 -->
<svg xmlns="http://www.w3.org/2000/svg" xml:space="preserve" width="4.49999in" height="3.13333in" version="1.1" style="shape-rendering:geometricPrecision; text-rendering:geometricPrecision; image-rendering:optimizeQuality; fill-rule:evenodd; clip-rule:evenodd"
viewBox="0 0 4500 3133"
 xmlns:xlink="http://www.w3.org/1999/xlink">
 <defs>
  <style type="text/css">
   <![CDATA[
    .fil26 {fill:#19193F;fill-rule:nonzero}
    .fil29 {fill:#202056;fill-rule:nonzero}
    .fil10 {fill:#212154;fill-rule:nonzero}
    .fil23 {fill:#214766;fill-rule:nonzero}
    .fil18 {fill:#225991;fill-rule:nonzero}
    .fil27 {fill:#272766;fill-rule:nonzero}
    .fil34 {fill:#293165;fill-rule:nonzero}
    .fil17 {fill:#2A6DBA;fill-rule:nonzero}
    .fil16 {fill:#2E76CC;fill-rule:nonzero}
    .fil36 {fill:#306084;fill-rule:nonzero}
    .fil61 {fill:#308787;fill-rule:nonzero}
    .fil9 {fill:#31317C;fill-rule:nonzero}
    .fil33 {fill:#316891;fill-rule:nonzero}
    .fil20 {fill:#3680D0;fill-rule:nonzero}
    .fil4 {fill:#38A18F;fill-rule:nonzero}
    .fil12 {fill:#39143F;fill-rule:nonzero}
    .fil25 {fill:#3A3A99;fill-rule:nonzero}
    .fil19 {fill:#3D89D3;fill-rule:nonzero}
    .fil2 {fill:#45CE9D;fill-rule:nonzero}
    .fil22 {fill:#4C9ADE;fill-rule:nonzero}
    .fil21 {fill:#52A0E2;fill-rule:nonzero}
    .fil28 {fill:#5353AD;fill-rule:nonzero}
    .fil30 {fill:#5757BC;fill-rule:nonzero}
    .fil7 {fill:#5CB97C;fill-rule:nonzero}
    .fil5 {fill:#5DAD73;fill-rule:nonzero}
    .fil35 {fill:#5EC2C9;fill-rule:nonzero}
    .fil6 {fill:#65D886;fill-rule:nonzero}
    .fil8 {fill:#6ADA82;fill-rule:nonzero}
    .fil40 {fill:#7091AA;fill-rule:nonzero}
    .fil38 {fill:#7197B3;fill-rule:nonzero}
    .fil32 {fill:#72F2F2;fill-rule:nonzero}
    .fil31 {fill:#7474CE;fill-rule:nonzero}
    .fil39 {fill:#90D5DA;fill-rule:nonzero}
    .fil37 {fill:#9EF6F6;fill-rule:nonzero}
    .fil50 {fill:#AA3F2B;fill-rule:nonzero}
    .fil3 {fill:#ABEF52;fill-rule:nonzero}
    .fil1 {fill:#ACE5E8;fill-rule:nonzero}
    .fil0 {fill:#CFF5F9;fill-rule:nonzero}
    .fil56 {fill:#D1BBB1;fill-rule:nonzero}
    .fil54 {fill:#D56F41;fill-rule:nonzero}
    .fil51 {fill:#D64C27;fill-rule:nonzero}
    .fil59 {fill:#D8D8D8;fill-rule:nonzero}
    .fil46 {fill:#DBD6BF;fill-rule:nonzero}
    .fil42 {fill:#E6FAFC;fill-rule:nonzero}
    .fil48 {fill:#E7E484;fill-rule:nonzero}
    .fil53 {fill:#EB763F;fill-rule:nonzero}
    .fil55 {fill:#EC762E;fill-rule:nonzero}
    .fil57 {fill:#EC922D;fill-rule:nonzero}
    .fil15 {fill:#ED8772;fill-rule:nonzero}
    .fil43 {fill:#F47231;fill-rule:nonzero}
    .fil13 {fill:#F78B31;fill-rule:nonzero}
    .fil60 {fill:#F7C331;fill-rule:nonzero}
    .fil58 {fill:#F7F7F7;fill-rule:nonzero}
    .fil49 {fill:#F8B730;fill-rule:nonzero}
    .fil45 {fill:#F8C130;fill-rule:nonzero}
    .fil14 {fill:#F9D730;fill-rule:nonzero}
    .fil52 {fill:#FB9544;fill-rule:nonzero}
    .fil47 {fill:#FBCE75;fill-rule:nonzero}
    .fil41 {fill:#FCEA91;fill-rule:nonzero}
    .fil44 {fill:#FF9F57;fill-rule:nonzero}
    .fil11 {fill:#FFBF9F;fill-rule:nonzero}
    .fil24 {fill:white;fill-rule:nonzero}
   ]]>
  </style>
 </defs>
 <g id="Layer_x0020_1">
  <metadata id="CorelCorpID_0Corel-Layer"/>
  <g id="_1066500144">
   <path class="fil0" d="M427 1025c124,12 249,59 373,106 100,38 204,77 304,96 193,36 381,-22 503,-155 137,-149 175,-367 106,-614 -41,-151 -27,-270 43,-355 8,-9 17,-19 26,-27 -637,-209 -1566,154 -1397,628 43,120 53,224 42,321z"/>
   <path class="fil0" d="M3181 2903c-2,37 -8,75 -19,113 -9,30 -20,60 -35,89 -24,1 -49,3 -74,4 -41,2 -84,4 -128,5 -16,1 -32,1 -49,2 -22,0 -44,1 -67,1 -11,0 -23,0 -34,0 -24,0 -47,0 -71,0 -473,0 -949,7 -1421,-45 -80,-9 -164,-18 -249,-30 -12,-2 -24,-3 -36,-5 -12,-2 -24,-4 -36,-6 -2,0 -4,0 -5,-1 -9,-1 -19,-3 -28,-4 -11,-2 -22,-4 -32,-6l-2 0c-11,-2 -21,-4 -31,-6 -10,-2 -21,-4 -31,-7l-1 0c-11,-2 -22,-5 -33,-7 -10,-2 -21,-5 -32,-7l0 -1c-89,-79 -174,-163 -254,-250 -82,-89 -160,-182 -230,-276 -11,-15 -23,-31 -34,-46 -91,-125 -166,-249 -226,-366 8,-45 17,-87 28,-129 2,-8 5,-16 7,-24l1 -2c4,-16 9,-31 14,-47 2,-4 4,-9 5,-14 4,-10 7,-20 11,-30 3,-6 5,-13 7,-19 3,-7 6,-13 8,-20 112,-274 285,-474 320,-724 120,12 243,58 369,106 101,38 205,77 307,96 200,38 396,-23 522,-161 142,-154 182,-380 111,-633 -40,-144 -26,-257 39,-336 10,-12 21,-23 33,-33 104,36 200,89 281,159 370,321 543,559 765,664 -32,20 -67,38 -103,57 -131,68 -267,139 -328,318 -116,338 79,542 373,849 19,20 38,40 57,60 88,93 350,396 331,712z"/>
   <path class="fil0" d="M4490 2019c0,11 0,21 0,32 0,7 0,15 -1,22 0,36 -2,72 -5,106 0,3 0,7 -1,10 0,2 0,3 0,5 0,6 -1,12 -2,17 0,7 -1,13 -1,18 -1,4 -1,9 -2,12 -1,12 -3,24 -5,36 -1,13 -3,25 -6,37 -1,7 -2,13 -3,19 0,2 -1,4 -1,6 -2,7 -3,15 -5,22l0 3c-2,8 -4,16 -6,24l0 0c-2,7 -4,14 -6,21 -4,17 -9,34 -15,50 -2,7 -4,13 -7,20l0 2c-3,7 -6,14 -9,21l0 2c-3,7 -6,14 -9,21 -2,6 -5,11 -7,16 -1,2 -2,5 -3,7 -4,7 -7,13 -10,20 -4,7 -8,14 -11,21 -4,7 -8,14 -12,21 -4,7 -8,13 -13,20 -8,13 -17,26 -27,39 -36,48 -78,93 -129,134 -3,3 -7,5 -10,8 -10,8 -20,15 -31,23l-2 1c-14,10 -30,20 -46,30 -4,3 -8,5 -12,8 -4,2 -8,4 -12,7 -8,5 -17,9 -25,14 -4,2 -9,5 -13,7 -5,2 -9,4 -13,7 -14,6 -28,13 -42,19 -4,3 -9,5 -14,7 -10,4 -19,8 -29,12 -10,4 -20,9 -30,12 -16,6 -32,12 -48,18l-1 0c-11,4 -21,7 -32,11 -5,2 -11,3 -17,5 -11,4 -22,7 -34,10l0 1c-11,3 -22,6 -33,9 -7,2 -14,3 -21,5 -12,3 -25,6 -37,10 -6,1 -13,3 -19,4 -19,4 -39,9 -59,13 -7,1 -14,2 -20,4 -7,1 -14,2 -21,4 -7,1 -14,2 -21,4 -28,5 -57,9 -86,14 -7,1 -15,2 -22,3 -15,2 -31,4 -46,6 -14,2 -29,4 -44,6 -25,2 -50,5 -76,8 -16,1 -33,3 -50,4 -8,1 -17,2 -25,2 -17,2 -35,3 -52,4 13,-26 23,-53 31,-82 12,-40 18,-80 20,-121 16,-322 -247,-629 -337,-723 -19,-21 -38,-41 -57,-60 -289,-302 -480,-502 -368,-829 58,-170 190,-239 318,-306 39,-21 79,-41 116,-65 118,50 253,63 438,33 207,-35 424,11 615,118 318,177 563,524 563,951z"/>
   <path class="fil0" d="M724 2982c-8,-3 -15,-5 -23,-7 -8,-2 -16,-4 -24,-7 -15,-4 -31,-9 -46,-14 -184,-61 -352,-157 -474,-316 -113,-147 -161,-327 -143,-511 0,-6 1,-12 2,-18 1,-6 1,-12 2,-18 58,109 129,224 215,341 18,27 38,53 58,78 56,74 116,146 180,217l0 0c79,88 164,174 253,254l0 1z"/>
   <path class="fil1" d="M724 2981l0 1c-8,-3 -15,-5 -23,-7 -8,-2 -16,-4 -24,-7 -15,-4 -31,-9 -46,-14 -184,-61 -352,-157 -474,-316 -113,-147 -161,-327 -143,-511 0,-6 1,-12 2,-18 1,-6 1,-12 2,-18 2,-13 3,-25 5,-37l0 0 1 -1c1,-7 2,-15 4,-23 0,-4 1,-9 2,-14 2,-7 3,-14 5,-22 1,-5 2,-10 3,-15 1,-7 3,-13 4,-20 3,-11 6,-22 9,-34 2,-8 5,-16 7,-24l1 -2c4,-16 9,-31 14,-47 2,-4 4,-9 5,-14 4,-10 7,-20 11,-30 3,-6 5,-13 7,-19 3,-7 6,-13 8,-20 110,68 200,200 179,453 -8,97 -9,177 0,244 2,15 5,30 8,44 23,108 79,175 180,217l0 0c79,88 164,174 253,254z"/>
   <path class="fil1" d="M3181 2903c-2,37 -8,75 -19,113 -9,30 -20,60 -35,89 -24,1 -49,3 -74,4 -41,2 -84,4 -128,5 -16,1 -32,1 -49,2 -22,0 -44,1 -67,1 -11,0 -23,0 -34,0 -24,0 -47,0 -71,0 -473,0 -949,7 -1421,-45 -81,-9 -164,-18 -249,-30 -12,-2 -24,-3 -36,-5 -12,-2 -24,-4 -36,-6 -2,0 -4,0 -5,-1 -9,-1 -19,-3 -28,-4 -11,-2 -22,-4 -32,-6l-2 0c-11,-2 -21,-4 -31,-6 -10,-2 -21,-4 -31,-7l-1 0c-11,-2 -22,-5 -33,-7 -10,-2 -21,-5 -32,-7l0 -1c-89,-79 -174,-163 -254,-250 181,58 481,60 956,75 635,20 1245,138 1712,86z"/>
   <path class="fil1" d="M4490 2019c0,11 0,21 0,32 0,7 0,15 -1,22 0,36 -2,72 -5,106 0,3 0,7 -1,10 0,2 0,3 0,5 0,6 -1,12 -2,17 0,7 -1,13 -1,18 -1,4 -1,9 -2,12 -1,12 -3,24 -5,36 -1,13 -3,25 -6,37 -1,7 -2,13 -3,19 0,2 -1,4 -1,6 -2,7 -3,15 -5,22l0 3c-2,8 -4,16 -6,24l0 0c-2,7 -4,14 -6,21 -4,17 -9,34 -15,50 -2,7 -4,13 -7,20l0 2c-3,7 -6,14 -9,21l0 2c-3,7 -6,14 -9,21 -2,6 -5,11 -7,16 -1,2 -2,5 -3,7 -4,7 -7,13 -10,20 -4,7 -8,14 -11,21 -4,7 -8,14 -12,21 -4,7 -8,13 -13,20 -8,13 -17,26 -27,39 -36,48 -78,93 -129,134 -3,3 -7,5 -10,8 -10,8 -20,15 -31,23l-2 1c-14,10 -30,20 -46,30 -4,3 -8,5 -12,8 -4,2 -8,4 -12,7 -8,5 -17,9 -25,14 -4,2 -9,5 -13,7 -5,2 -9,4 -13,7 -14,6 -28,13 -42,19 -4,3 -9,5 -14,7 -10,4 -19,8 -29,12 -10,4 -20,9 -30,12 -16,6 -32,12 -48,18l-1 0c-11,4 -21,7 -32,11 -5,2 -11,3 -17,5 -11,4 -22,7 -34,10l0 1c-11,3 -22,6 -33,9 -7,2 -14,3 -21,5 -12,3 -25,6 -37,10 -6,1 -13,3 -19,4 -19,4 -39,9 -59,13 -7,1 -14,2 -20,4 -7,1 -14,2 -21,4 -7,1 -14,2 -21,4 -28,5 -56,9 -86,14 -7,1 -15,2 -22,3 -15,2 -31,4 -46,6 -14,2 -29,4 -44,6 -25,2 -50,5 -76,8 -16,1 -33,3 -50,4 -8,1 -17,2 -25,2 -17,2 -35,3 -52,4 13,-26 23,-53 31,-82 12,-40 18,-80 20,-121 272,-33 494,-126 643,-332 405,-563 353,-660 0,-1081 -121,-145 -62,-301 82,-419 318,177 563,524 563,951z"/>
   <path class="fil2" d="M3920 2540c-65,33 -34,100 -29,144 0,7 0,13 0,19 -7,41 -101,67 -101,67l-778 0 1 -52c0,0 -19,-230 138,-241 157,-11 90,-152 190,-255 59,-61 96,-88 126,-116 21,-20 39,-40 57,-73 45,-80 45,-130 156,-95 13,5 26,6 38,5 13,-1 25,-5 37,-10 61,-29 104,-105 180,-49 104,76 104,155 70,252 -35,97 69,180 79,283 10,104 -90,82 -164,121z"/>
   <path class="fil3" d="M3845 2095c32,-50 41,-76 41,-76 0,0 -15,29 -41,76z"/>
   <path class="fil3" d="M3806 2419c-114,-11 -209,32 -209,32l0 1c110,-129 199,-272 248,-357 -38,59 -107,151 -230,274 -226,228 -419,386 -419,386l92 0c0,0 42,-28 161,-148l0 0c0,0 142,-122 212,-156 70,-34 290,0 290,0 0,0 -31,-20 -145,-32z"/>
   <path class="fil4" d="M3638 2770l-626 0 1 -52 0 0c0,0 -1,-9 -1,-23 0,-58 12,-209 139,-218 157,-11 90,-152 190,-255 59,-61 96,-88 126,-116 4,18 6,30 6,30 0,0 179,4 100,151 -48,90 -119,185 -126,245 -146,137 -251,223 -251,223l92 0c0,0 42,-28 161,-148 0,0 10,-8 25,-21 14,6 33,10 59,10 180,3 268,-12 262,81 0,13 5,21 13,25 -24,29 -66,44 -121,53 -19,3 -35,8 -49,15z"/>
   <path class="fil5" d="M3288 2755l-92 0c0,0 105,-86 251,-223 -3,25 4,43 27,54 -15,13 -25,21 -25,21 -119,120 -161,148 -161,148z"/>
   <path class="fil6" d="M3822 2704c-5,0 -10,-1 -14,-2 20,-25 29,-58 24,-105 -12,-105 52,-99 163,-135 111,-36 -10,-161 -75,-249 -65,-88 54,-148 31,-244 -10,-39 -50,-50 -95,-50 -36,0 -74,7 -101,14 45,-22 81,-69 127,-69 16,0 34,6 53,20 66,48 90,98 90,152 0,32 -8,65 -20,100 -5,14 -8,27 -7,41 0,80 77,154 86,242 0,5 1,10 1,14 0,88 -94,70 -165,107 -32,16 -41,41 -41,67 0,27 9,55 12,77 -27,12 -51,20 -69,20z"/>
   <path class="fil7" d="M3790 2770l-152 0c14,-7 30,-12 49,-15 55,-9 97,-24 121,-53 4,1 9,2 14,2 18,0 42,-8 69,-20l0 0c0,4 0,7 0,10 0,3 0,6 0,9 -7,41 -101,67 -101,67z"/>
   <path class="fil2" d="M1090 2786l-261 0c0,0 -170,-67 -230,-131 -16,-17 -24,-33 -20,-47 17,-73 131,-33 91,-107 -39,-75 -179,-112 -173,-166 7,-54 230,-12 166,-150 -64,-139 -195,-147 -147,-230 49,-83 187,-121 247,-12 57,102 91,186 148,141 4,-3 7,-6 11,-10 64,-66 42,-120 127,-83 86,37 41,795 41,795z"/>
   <path class="fil3" d="M1000 2781c0,0 -6,-220 -108,-432 -3,-28 -3,-61 1,-95 14,-116 50,-152 50,-152 0,0 -33,32 -59,91 -14,32 -19,71 -21,99 -95,-176 -175,-237 -175,-237 0,0 146,195 200,370 10,33 19,67 26,100 -29,-38 -79,-93 -149,-131 -116,-63 -157,-37 -157,-37 0,0 98,-7 192,86 63,64 106,124 128,157 16,104 17,184 17,184l55 -3z"/>
   <path class="fil4" d="M979 2786l-150 0c0,0 -170,-67 -230,-131 0,-16 6,-29 24,-29 17,0 44,10 85,39 47,31 82,45 106,45 57,0 59,-72 29,-152 -13,-35 -12,-56 -4,-73 42,47 72,90 89,115 16,104 17,184 17,184l34 -2 0 4zm0 -170c-12,-63 -32,-139 -64,-216 11,-17 21,-38 28,-65 20,-77 -11,-131 -27,-184 14,-36 27,-49 27,-49l0 0c0,0 0,0 0,0l0 0 0 0c0,0 0,0 0,0l0 0c0,0 -13,13 -29,38 -5,-18 -6,-37 -3,-56 4,-3 7,-6 11,-10 34,-35 44,-66 58,-83 -1,6 -1,12 -1,17l0 608zm-65 -91c-14,-19 -33,-41 -57,-64 9,-10 21,-19 33,-31 9,32 17,64 24,95z"/>
   <path class="fil5" d="M945 2784c0,0 -1,-80 -17,-184 -17,-25 -47,-68 -89,-115 4,-9 10,-16 18,-24 24,23 43,45 57,64 -7,-31 -15,-63 -24,-95 8,-9 17,-18 25,-30 32,77 52,153 64,216l0 166 -34 2zm-29 -633c-1,-4 -2,-8 -2,-11 16,-25 29,-38 29,-38 0,0 -13,13 -27,49zm27 -49c0,0 0,0 0,0 0,0 0,0 0,0zm0 0l0 0 0 0z"/>
   <path class="fil8" d="M712 2213c-31,0 -85,-132 -127,-180 -50,-56 0,-95 0,-95 0,0 26,-8 55,-8 22,0 46,5 61,21 23,24 36,93 38,155 -32,-36 -51,-51 -51,-51 0,0 21,28 50,73 -1,31 -5,58 -13,75 -4,7 -8,10 -13,10z"/>
   <path class="fil3" d="M738 2128c-29,-45 -50,-73 -50,-73 0,0 19,15 51,51 0,8 0,15 -1,22z"/>
   <path class="fil8" d="M711 2460c-9,0 -19,-5 -30,-17 -50,-51 -96,-93 -96,-93 0,0 21,-7 49,-7 24,0 53,5 77,26 -34,-13 -58,-17 -74,-17 -20,0 -29,5 -29,5 0,0 2,0 5,0 16,0 62,3 117,33 18,33 6,70 -19,70z"/>
   <path class="fil3" d="M730 2390c-55,-30 -101,-33 -117,-33 -3,0 -5,0 -5,0 0,0 9,-5 29,-5 16,0 40,4 74,17 0,0 0,0 0,0 8,6 14,14 19,21z"/>
   <path class="fil9" d="M1830 2008l0 778 -851 0 0 -778c0,-68 56,-124 124,-124l603 0c69,0 124,56 124,124z"/>
   <path class="fil10" d="M1830 2690c-16,31 -39,59 -69,80 -7,5 -14,11 -20,16l-762 0 0 -39c72,2 167,-18 216,-122 77,-161 15,-586 -51,-741l303 0c89,38 175,89 232,149 63,66 117,161 151,262 48,139 57,290 0,395z"/>
   <path class="fil11" d="M2170 1333c-2,84 -26,171 -78,205 -52,35 -69,32 -69,32l-1 44c-6,5 -14,16 -23,30 -27,43 -61,116 -75,122 -19,9 -145,-150 -152,-171 -2,-6 -4,-8 -8,-9 1,-3 12,-62 19,-114l0 0 0 -1c4,-32 7,-62 3,-74 -8,-33 -32,-64 -22,-170 10,-105 154,-255 333,-198 180,57 74,219 73,304z"/>
   <path class="fil12" d="M1785 1450c0,0 -14,-19 -24,-41 -9,-23 -123,-235 -49,-344 74,-109 159,-78 159,-78 0,0 98,-17 136,-33 38,-15 192,-129 266,-39 75,90 16,221 -24,250 -39,30 -49,23 -49,23 0,0 -15,-45 -54,-50 -40,-6 -83,7 -125,-6 -41,-12 -90,-27 -121,4 -31,31 -22,140 -33,155 -10,16 -46,11 -51,-19 -6,-29 -33,24 -37,59 -3,35 25,65 16,88 -9,23 -10,31 -10,31z"/>
   <path class="fil13" d="M1927 1248c0,54 -43,97 -97,97 -53,0 -96,-43 -96,-97 0,-53 43,-97 96,-97 54,0 97,44 97,97z"/>
   <path class="fil14" d="M1899 1248c0,54 -44,97 -97,97 -54,0 -97,-43 -97,-97 0,-53 43,-97 97,-97 19,0 38,6 53,16 26,17 44,47 44,81z"/>
   <path class="fil14" d="M2056 928l-55 31 -31 7c0,0 -60,26 -89,92 -28,64 -26,107 -26,109 -15,-10 -34,-16 -53,-16 0,0 18,-157 104,-204 87,-48 150,-19 150,-19z"/>
   <path class="fil15" d="M2023 1570l-1 44c-6,5 -14,16 -23,30 -27,-4 -58,-11 -89,-24 -86,-36 -126,-144 -127,-148l0 0 0 -1 6 -35c0,0 42,57 80,94 37,38 154,40 154,40z"/>
   <path class="fil16" d="M2904 2505l-297 -13c0,0 -102,-76 -156,-109 -51,-32 -133,-94 -138,-98l0 0c0,0 5,95 5,134l0 266c0,49 0,85 0,85l-950 0 0 -195c0,0 -124,9 -217,-27 -47,-19 -86,-49 -97,-97 -34,-140 135,-694 312,-793 6,-4 13,-7 19,-9 123,-44 220,-42 278,-40 29,0 48,1 58,-3 19,-10 34,-22 43,-20 4,1 6,3 8,9 7,21 133,180 152,171 18,-7 72,-132 98,-152 2,-2 4,-3 6,-3 23,0 209,33 249,79 40,47 275,386 318,446 14,20 53,68 99,122 92,110 210,247 210,247z"/>
   <path class="fil17" d="M1825 2618c-22,0 -44,-1 -64,-4 36,0 72,1 105,3 -14,1 -28,1 -41,1zm208 -32c2,-3 4,-6 5,-9l0 0c1,-1 1,-1 1,-1 1,-2 2,-4 3,-6 5,-10 8,-21 9,-31 3,-12 3,-24 3,-34l0 0c0,-14 -2,-23 -2,-23 0,0 -34,-13 -86,-32 266,64 368,32 153,108 -29,10 -58,20 -86,28zm-218 -187c-4,-2 -9,-3 -13,-5l0 0c0,0 0,0 -1,0 -46,-15 -93,-29 -136,-40 -6,-2 -13,-4 -20,-5 -34,-12 -67,-24 -92,-37 12,-81 47,-142 47,-142 0,0 36,140 215,229z"/>
   <path class="fil18" d="M2318 2685c0,49 0,85 0,85l-950 0 0 -195c0,0 -124,9 -217,-27 33,-213 82,-407 131,-474 83,-114 348,-307 348,-307 0,0 -149,468 -113,518 35,49 285,109 285,109l197 231c0,0 -430,-37 -472,22 -41,59 415,95 577,86 163,-9 209,-51 209,-51 0,0 2,1 5,3z"/>
   <path class="fil18" d="M2313 2285c0,0 -40,-128 -53,-242 -14,-114 -14,-180 -14,-180 0,0 -28,163 0,279 27,115 67,143 67,143z"/>
   <path class="fil19" d="M2054 2505c0,20 -2,49 -16,72 -8,14 -16,25 -22,32 -11,12 -17,16 -17,16l-631 -50c0,0 -280,21 -314,-124 -17,-72 19,-251 81,-423 2,-8 38,-125 108,-233 22,-37 46,-69 70,-94 17,-18 35,-33 53,-43l1 1c49,-36 107,-55 173,-46 270,37 -144,713 -144,713 0,0 154,-2 269,28 161,42 387,128 387,128 0,0 2,9 2,23z"/>
   <path class="fil20" d="M2125 2443c-18,0 -35,-2 -52,-6 -126,-26 -236,-102 -326,-192 -55,-56 -108,-126 -117,-205 -7,-60 18,-120 39,-179 12,-32 29,-126 70,-126 10,0 22,7 36,22 47,52 95,104 142,157 73,80 147,161 213,247 34,46 67,93 87,147 10,24 16,52 7,77 -9,28 -36,47 -64,54 -12,3 -23,4 -35,4z"/>
   <path class="fil19" d="M1679 1610c0,0 87,-61 111,-46 24,16 153,159 137,178 -16,19 -82,69 -82,69l-166 -201z"/>
   <polygon class="fil18" points="1927,1742 1938,1792 1881,1783 "/>
   <path class="fil19" d="M1927 1742c0,0 80,-159 106,-143 27,16 52,57 52,57l-108 111 -50 -25z"/>
   <polygon class="fil18" points="1977,1767 1938,1792 1927,1742 "/>
   <path class="fil17" d="M2233 2227c0,0 -8,-22 -101,-138 -94,-115 -194,-250 -194,-250 0,0 114,24 181,133 67,109 114,255 114,255z"/>
   <path class="fil21" d="M1768 1568c0,10 8,26 13,33 13,19 27,39 41,57 5,7 58,77 68,56 19,-45 -64,-113 -91,-138 -4,-5 -9,-9 -14,-11 -13,-6 -17,-3 -17,3z"/>
   <path class="fil16" d="M2043 2568c-1,3 -3,6 -5,9 -8,14 -16,25 -22,32 -11,12 -17,16 -17,16l-444 -35 -187 -15c0,0 -8,1 -21,1l0 0 0 0c-67,1 -265,-5 -293,-125 -17,-72 19,-251 81,-423 2,-8 38,-125 108,-233 22,-37 46,-69 70,-94 0,0 -282,549 -162,694 120,145 445,140 635,145 190,4 268,-35 268,-35 0,17 -2,42 -11,63z"/>
   <path class="fil22" d="M1862 2514c-176,0 -528,-49 -557,-77 -26,-25 -9,-41 19,-51 30,-10 73,-14 87,-15 22,-1 44,-2 65,-2 55,0 110,5 163,14 184,32 395,88 313,122 -16,6 -48,9 -90,9z"/>
   <path class="fil22" d="M1181 2287c-5,0 -10,-2 -13,-5 -8,-7 -6,-19 -4,-30 25,-120 72,-234 121,-346 35,-81 89,-232 194,-232 10,0 20,1 31,4 11,3 23,8 28,19 1,2 2,5 2,7 1,8 -1,17 -3,25 -16,61 -33,122 -49,182 -22,81 -45,165 -97,231 -48,61 -118,101 -187,137 -7,4 -16,8 -23,8z"/>
   <path class="fil18" d="M2904 2505l-297 -13c0,0 -102,-76 -156,-109 -51,-32 -133,-94 -138,-98l0 0c0,0 -48,-119 -64,-186 -16,-67 0,-161 0,-161 0,0 75,332 251,381 77,22 144,-14 194,-61 92,110 210,247 210,247z"/>
   <path class="fil20" d="M2587 2246c-40,0 -112,-39 -191,-157 -137,-204 -83,-297 -83,-297 0,0 267,348 301,408 14,25 2,46 -27,46z"/>
   <polygon class="fil11" points="1346,2576 1347,2576 1347,2576 1347,2576 "/>
   <path class="fil18" d="M2043 2568c-1,3 -3,6 -5,9 -8,14 -16,25 -22,32 -11,12 -17,16 -17,16l-444 -35c169,9 389,15 451,-12 14,-6 27,-9 37,-10z"/>
   <path class="fil13" d="M2121 1487c-7,0 -11,0 -12,0l1 -11c0,0 83,5 100,-28 15,-29 -19,-138 -33,-177l9 -4c6,15 53,148 33,185 -16,31 -73,35 -98,35z"/>
   <path class="fil23" d="M2121 1480c0,17 -24,31 -54,31 -30,0 -54,-14 -54,-31 0,-16 24,-30 54,-30 30,0 54,14 54,30z"/>
   <path class="fil24" d="M1843 1194c0,0 -2,-2 -5,-4 -10,-7 -34,-21 -72,-15 -50,8 -61,88 -6,61l83 -42z"/>
   <polygon class="fil25" points="1714,2770 3718,2770 3718,2703 1714,2703 "/>
   <polygon class="fil26" points="1714,2703 1714,2665 2524,2591 2439,2703 "/>
   <polygon class="fil26" points="2439,2703 2857,2119 2892,2136 2481,2703 "/>
   <polygon class="fil27" points="3631,2136 3270,2647 3231,2703 2481,2703 2768,2307 2768,2307 2768,2307 2892,2136 "/>
   <polygon class="fil28" points="3631,2136 3609,2118 2857,2119 2892,2136 "/>
   <polygon class="fil26" points="2768,2307 2768,2307 2768,2307 "/>
   <path class="fil29" d="M3270 2647l-39 56 -750 0 287 -396c-7,12 -196,340 81,340l421 0z"/>
   <path class="fil9" d="M2863 2281c-11,9 -18,21 -24,37 -23,62 -48,162 21,206 5,3 10,5 15,8 124,52 546,-170 596,-266 29,-57 -247,-36 -269,-34 -69,6 -138,14 -207,23 -33,4 -65,5 -98,11 -14,3 -25,8 -34,15z"/>
   <path class="fil9" d="M3398 2395c0,0 -197,170 -309,185 -112,16 -221,16 -173,26 48,10 195,19 304,-24 109,-43 178,-187 178,-187z"/>
   <path class="fil30" d="M3614 2745c50,18 -1042,9 -1028,-7 15,-15 691,-26 832,-27 140,-2 149,18 196,34z"/>
   <path class="fil11" d="M2440 2634c-16,-17 -84,-60 -121,-60 -36,0 -44,52 -113,46 -6,-1 -13,-1 -18,-2l0 0c-50,-6 -64,-13 -171,-9 6,-8 14,-18 22,-33 14,-22 16,-51 16,-71l0 0c0,0 13,-2 32,-4 44,-6 123,-16 156,-25 46,-13 180,26 205,90 24,65 14,44 26,59 11,15 -18,26 -34,9z"/>
   <path class="fil15" d="M2188 2618c-50,-6 -64,-13 -171,-9 6,-8 14,-18 22,-33 14,-22 16,-51 16,-71l0 0c0,0 13,-2 32,-4 -4,24 2,53 32,75 25,18 49,31 69,42z"/>
   <polygon class="fil31" points="385,2930 3920,2930 3920,2770 385,2770 "/>
   <path class="fil27" d="M1658 660c0,281 -228,508 -509,508 -281,0 -509,-227 -509,-508 0,-281 228,-509 509,-509 281,0 509,228 509,509z"/>
   <path class="fil32" d="M1569 660c0,232 -188,420 -420,420 -36,0 -71,-5 -105,-14 -11,-2 -22,-6 -33,-9 -62,-22 -118,-58 -163,-105 -7,-7 -13,-14 -20,-21 -10,-12 -19,-25 -28,-38 -21,-31 -38,-66 -50,-102 -14,-42 -21,-86 -21,-131 0,-232 188,-420 420,-420 28,0 56,2 82,8 37,7 72,19 104,35 14,7 28,15 41,23 9,6 17,12 25,18 50,37 92,86 121,142 7,13 13,26 18,39 19,48 29,100 29,155z"/>
   <path class="fil33" d="M795 632c-14,0 -26,11 -26,26 0,14 12,26 26,26 15,0 27,-12 27,-26 0,-15 -12,-26 -27,-26z"/>
   <path class="fil33" d="M1495 632c-14,0 -26,11 -26,26 0,14 12,26 26,26 15,0 26,-12 26,-26 0,-15 -11,-26 -26,-26z"/>
   <path class="fil33" d="M1152 328c14,0 26,-12 26,-26 0,-15 -12,-27 -26,-27 -15,0 -27,12 -27,27 0,14 12,26 27,26z"/>
   <path class="fil33" d="M1152 973c-15,0 -27,12 -27,26 0,15 12,26 27,26 14,0 26,-11 26,-26 0,-14 -12,-26 -26,-26z"/>
   <polygon class="fil33" points="956,331 982,370 990,364 964,325 "/>
   <polygon class="fil33" points="874,471 838,455 833,465 870,480 "/>
   <polygon class="fil33" points="1341,332 1315,364 1323,370 1349,339 "/>
   <polygon class="fil33" points="1466,463 1424,488 1429,497 1471,472 "/>
   <polygon class="fil33" points="1433,814 1466,831 1471,822 1437,804 "/>
   <polygon class="fil33" points="1328,936 1353,976 1362,970 1337,931 "/>
   <polygon class="fil33" points="956,970 964,976 990,944 982,937 "/>
   <polygon class="fil33" points="833,822 838,831 874,814 870,804 "/>
   <path class="fil33" d="M1190 658c0,-18 -12,-32 -28,-37l0 -270 -21 0 0 270c-16,5 -28,19 -28,37 0,21 17,38 39,38 7,0 13,-2 19,-5l86 84 14 -15 -86 -84c3,-5 5,-11 5,-18z"/>
   <path class="fil34" d="M1149 1080c-169,0 -315,-100 -381,-245 9,21 20,40 32,58l0 0c9,13 18,26 28,38l0 0c7,7 13,14 20,21l0 0c45,47 101,83 163,105l0 0c11,3 22,7 33,9l0 0c34,9 69,14 105,14 55,0 107,-11 155,-30 -48,19 -100,30 -155,30z"/>
   <path class="fil35" d="M1149 1080c-36,0 -71,-5 -105,-14l157 -177c31,7 64,11 98,11 87,0 168,-26 235,-71 -45,101 -128,181 -230,221 -48,19 -100,30 -155,30zm3 -107c-15,0 -27,12 -27,26 0,15 12,26 27,26 14,0 26,-11 26,-26 0,-14 -12,-26 -26,-26zm185 -42l-9 5 25 40 9 -6 -25 -39zm-326 126l0 0c-62,-22 -118,-58 -163,-105l154 -175c45,46 101,81 163,102l-154 178zm-29 -120l-26 33 8 6 26 -32 -8 -7zm-154 -6l0 0c-10,-12 -19,-25 -28,-38l67 -76 7 -3 -2 -3 81 -92c9,12 19,25 29,37l-154 175z"/>
   <path class="fil36" d="M1152 1025c-15,0 -27,-11 -27,-26 0,-14 12,-26 27,-26 14,0 26,12 26,26 0,15 -12,26 -26,26z"/>
   <polygon class="fil36" points="1353,976 1328,936 1337,931 1362,970 "/>
   <polygon class="fil36" points="964,976 956,970 982,937 990,944 "/>
   <path class="fil34" d="M746 779l0 0 0 0zm0 0c-3,-10 -5,-20 -7,-30 2,10 4,20 7,30zm84 -392c24,-29 53,-54 85,-76 0,0 0,0 0,0 -32,22 -61,47 -85,76z"/>
   <path class="fil35" d="M750 791c-1,-4 -3,-8 -4,-12l0 0c0,0 0,0 0,0 -3,-10 -5,-20 -7,-30 -7,-29 -10,-59 -10,-89 0,-104 38,-200 101,-273 24,-29 53,-54 85,-76 -23,52 -36,109 -36,169 0,49 8,95 23,139l-152 172zm45 -159c-14,0 -26,11 -26,26 0,14 12,26 26,26 15,0 27,-12 27,-26 0,-15 -12,-26 -27,-26zm43 -177l-5 10 37 15 4 -9 -36 -16z"/>
   <path class="fil36" d="M795 684c-14,0 -26,-12 -26,-26 0,-15 12,-26 26,-26 15,0 27,11 27,26 0,14 -12,26 -27,26z"/>
   <polygon class="fil36" points="870,480 833,465 838,455 874,471 "/>
   <polygon class="fil36" points="867,817 872,811 874,814 "/>
   <path class="fil37" d="M768 835c-7,-14 -13,-29 -18,-44l0 0c5,15 11,30 18,44zm185 -116c-21,-31 -38,-65 -51,-100l260 -293c7,-3 13,-9 15,-17l54 -61c37,7 72,19 104,35l-173 197 0 -129 -21 0 0 153 -188 215z"/>
   <path class="fil38" d="M1162 326l15 -17c-2,8 -8,14 -15,17z"/>
   <polygon class="fil38" points="1141,504 1141,351 1162,351 1162,480 "/>
   <path class="fil39" d="M800 893l0 0c-12,-18 -23,-37 -32,-58 -7,-14 -13,-29 -18,-44l152 -172c13,35 30,69 51,100l-81 92 -2 -7 -37 18 5 9 29 -14 -67 76z"/>
   <polygon class="fil40" points="838,831 833,822 870,804 872,811 867,817 "/>
   <path class="fil37" d="M1002 777c-7,-7 -14,-14 -20,-21l159 -182 0 45 -2 3c-13,4 -22,15 -25,28l-112 127zm160 -182l0 -45 159 -182 2 2 26 -31 -1 -1 28 -32c9,6 17,12 25,18l-239 271z"/>
   <polygon class="fil38" points="1323,370 1321,368 1348,338 1349,339 "/>
   <path class="fil38" d="M1114 650c3,-13 12,-24 25,-28l-25 28zm27 -31l0 -45 21 -24 0 45 -21 24z"/>
   <path class="fil39" d="M848 952l0 0c-7,-7 -13,-14 -20,-21l154 -175c6,7 13,14 20,21l-154 175z"/>
   <path class="fil37" d="M1201 889c-12,-3 -24,-6 -36,-10l91 -105 1 1 14 -15 -2 -2 253 -292c7,13 13,26 18,39l-339 384z"/>
   <polygon class="fil38" points="1257,775 1256,774 1269,758 1271,760 "/>
   <path class="fil39" d="M1044 1066l0 0c-11,-2 -22,-6 -33,-9l154 -178c12,4 24,7 36,10l-157 177z"/>
   <path class="fil14" d="M3445 1036l0 0c-2,2 -4,4 -6,6 -2,2 -3,3 -5,5l-2 1c-2,1 -4,3 -6,4 -6,4 -12,7 -20,8 -1,1 -2,1 -4,2 -5,1 -11,1 -17,1 -44,0 -81,-35 -81,-80 0,-6 1,-12 2,-17 1,-3 2,-6 3,-9 1,-2 2,-5 3,-7l0 -1c13,-27 41,-46 73,-46 1,0 3,0 4,0l0 0c29,4 53,20 67,44 6,11 9,23 9,36 0,20 -8,39 -20,53zm217 -113l-46 -10c-4,-12 -8,-24 -14,-35l25 -40c5,-7 4,-16 -2,-22l-72 -71c-6,-6 -15,-7 -22,-3l-39 26c-12,-6 -24,-11 -36,-15l-10 -46c-2,-8 -9,-14 -17,-14l-101 0c-9,0 -16,6 -18,14l-10 46c-12,4 -24,9 -35,15l-40 -26c-7,-4 -16,-3 -22,3l-71 71c-6,6 -7,15 -3,22l26 40c-6,11 -11,23 -15,35l-46 10c-8,2 -14,9 -14,18l0 101c0,8 6,15 14,17l28 6 18 4c4,12 9,24 15,35l-2 3 -24 37c-4,7 -3,16 3,22l71 72c6,5 15,6 22,2l40 -25c11,5 23,10 35,14l10 46c2,8 9,14 18,14l101 0c6,0 11,-3 14,-8 2,-1 3,-4 3,-6l10 -46c12,-4 24,-9 36,-14l39 25c7,4 16,3 22,-2l72 -72c6,-6 7,-15 2,-22l-25 -40c6,-11 10,-23 14,-35l46 -10c8,-2 14,-9 14,-17l0 -101c0,-9 -6,-16 -14,-18z"/>
   <path class="fil41" d="M3080 945l0 -4c0,-9 6,-16 14,-18l26 -5c-3,7 -6,13 -8,20l-32 7z"/>
   <path class="fil24" d="M3265 768c0,0 0,0 0,-1 0,1 0,1 0,1zm-83 -2l21 -21 -21 21 0 0z"/>
   <path class="fil41" d="M3236 793l-39 -25c-3,-2 -6,-3 -9,-3 -2,0 -4,0 -6,1l21 -21c4,-4 8,-5 13,-5 3,0 7,0 9,2l40 26 0 0c0,0 0,0 0,-1 4,-1 7,-3 10,-4l-3 15c-12,4 -24,9 -36,15z"/>
   <path class="fil42" d="M3429 1289c0,0 0,0 0,0 0,0 0,0 0,0zm0 0c0,0 0,0 0,0 0,0 0,0 0,0zm11 -4c1,-1 2,-2 3,-4l0 0c1,0 2,-1 2,-2 -1,2 -3,4 -5,6zm6 -10c0,0 0,0 0,0 0,0 0,0 0,0zm0 0c0,0 0,0 0,0l0 0c0,0 0,0 0,0z"/>
   <path class="fil41" d="M3443 1281c-6,-2 -13,-4 -20,-6l5 -21c8,-2 17,-6 25,-10l-7 31c0,0 0,0 0,0 0,0 0,0 0,0 0,0 0,0 0,0 0,2 -1,3 -1,4 0,1 -1,2 -2,2l0 0z"/>
   <polygon class="fil24" points="3308,718 3308,718 3310,707 "/>
   <path class="fil41" d="M3648 1062l0 -96c0,-9 -6,-16 -14,-18l-46 -10c-4,-12 -9,-24 -15,-35l26 -40c4,-7 3,-16 -3,-22l-71 -71c-4,-4 -8,-5 -13,-5 -3,0 -6,1 -9,3l-40 25c-11,-6 -23,-11 -35,-15l-10 -46c-2,-8 -9,-14 -18,-14l-92 0 2 -11c2,-8 9,-14 18,-14l101 0c8,0 15,6 17,14l10 46c12,4 24,9 36,15l39 -26c3,-2 6,-2 10,-2 4,0 9,1 12,5l72 71c3,3 5,8 5,13 0,3 -1,6 -3,9l-25 40 0 0c6,11 10,23 14,35l46 10c8,2 14,9 14,18l0 101c0,8 -6,15 -14,17l-14 3z"/>
   <path class="fil42" d="M3553 1238c0,0 0,0 0,0 0,0 0,0 0,0zm49 -134l0 0c0,0 0,0 0,0 0,0 0,0 0,0z"/>
   <path class="fil41" d="M3546 1242l50 -51c6,-6 7,-15 3,-22l-26 -39c6,-12 11,-24 15,-36l21 -4c-3,4 -5,9 -7,14 0,0 0,0 0,0l0 0 25 40c2,3 3,6 3,9 0,5 -2,10 -5,13l-72 72 0 0c0,0 0,0 0,0 0,0 0,0 0,0 -2,2 -5,3 -7,4z"/>
   <path class="fil43" d="M3404 1076c-8,2 -17,4 -26,4 -36,0 -68,-22 -82,-53 -5,-11 -8,-23 -8,-36 0,-49 41,-89 90,-89 4,0 7,1 11,1l0 0c29,4 53,20 67,44 8,13 12,28 12,44 0,40 -27,74 -64,85zm-26 -234c-83,0 -151,67 -151,149 0,82 68,149 151,149 84,0 151,-67 151,-149 0,-82 -67,-149 -151,-149z"/>
   <path class="fil13" d="M3465 983c0,20 -8,39 -20,53l0 0c-2,2 -4,4 -6,6 -1,2 -3,3 -5,5l-2 1c-2,1 -4,3 -6,4 -6,4 -12,7 -20,8 -1,1 -2,1 -4,2 -5,1 -11,1 -17,1 -44,0 -81,-35 -81,-80 0,-6 1,-12 2,-17 1,-3 2,-6 3,-9 1,-2 2,-5 3,-7l0 -1c13,-27 41,-46 73,-46 1,0 3,0 4,0l0 0c29,2 55,19 67,44 6,11 9,23 9,36zm-80 -135c-3,0 -5,1 -8,1 -1,0 -3,0 -5,0 -2,0 -4,1 -6,1 -6,1 -12,2 -18,4l-1 0c-2,1 -5,1 -7,2l-2 1c-2,1 -5,2 -7,3l-1 0c-3,1 -5,3 -8,4 -2,1 -5,3 -7,4l-1 0c-2,2 -5,4 -7,5 -2,2 -4,3 -6,5 -3,2 -6,5 -9,8 -2,1 -3,3 -5,4 -2,3 -5,5 -7,8 -1,2 -3,4 -5,7 -2,2 -3,5 -5,7 -1,3 -3,5 -4,8 -10,19 -16,40 -16,63 0,75 60,135 135,135 49,0 92,-26 116,-66 1,-1 1,-3 2,-5 3,-4 5,-9 7,-14 1,-3 2,-6 3,-10 1,-2 2,-4 2,-6 1,-3 2,-6 2,-9 1,-2 1,-3 1,-4 0,-2 1,-5 1,-7 0,-2 0,-5 0,-7 0,-2 1,-4 1,-7 0,-74 -61,-135 -135,-135z"/>
   <path class="fil44" d="M3445 1036c-8,18 -23,32 -41,40 -10,4 -21,6 -32,6 -35,0 -65,-23 -76,-55 -2,-8 -4,-16 -4,-25 0,-20 8,-38 20,-52 -1,2 -2,5 -3,7 -1,3 -2,6 -3,9 -1,5 -2,11 -2,17 0,45 37,80 81,80 6,0 12,0 17,-1 2,-1 3,-1 4,-2 8,-1 14,-4 20,-8 2,-1 4,-3 6,-4l2 -1c2,-2 3,-3 5,-5 2,-2 4,-4 6,-6z"/>
   <path class="fil44" d="M3372 867c75,0 135,61 135,135 0,23 -5,45 -16,63 18,-22 29,-51 29,-82 0,-74 -61,-135 -135,-135 -52,0 -97,29 -119,72 24,-32 63,-53 106,-53z"/>
   <path class="fil45" d="M3122 1065l-28 -6c-8,-2 -14,-9 -14,-17l0 -89c6,36 19,74 42,112z"/>
   <path class="fil46" d="M3216 1243l0 0c0,0 0,0 0,0 0,0 0,0 0,0zm0 0c-4,0 -9,-2 -12,-5 3,3 8,5 12,5zm-12 -5c0,0 0,0 0,0 0,0 0,0 0,0zm0 0c0,0 0,0 0,0 0,0 0,0 0,0zm0 0c0,0 0,0 -1,0 1,0 1,0 1,0z"/>
   <path class="fil45" d="M3420 1289l-92 0c-9,0 -16,-6 -18,-14l-10 -46c-12,-4 -24,-9 -35,-14l-40 25 0 0c-2,2 -6,3 -9,3 0,0 0,0 0,0 0,0 0,0 0,0 -4,0 -9,-2 -12,-5l0 0c0,0 0,0 0,0 0,0 0,0 0,0 0,0 0,0 0,0 0,0 0,0 0,0 0,0 0,0 -1,0 0,0 0,0 0,0l0 0 -71 -72c-4,-3 -5,-8 -5,-13 0,-3 1,-6 2,-9l24 -37c24,29 56,57 97,82 60,38 118,66 173,86l-3 14z"/>
   <path class="fil45" d="M3429 1289c0,0 0,0 0,0 0,0 0,0 0,0z"/>
   <path class="fil45" d="M3429 1289c4,0 8,-2 11,-4 -3,2 -7,4 -11,4z"/>
   <path class="fil47" d="M3429 1289l-9 0 3 -14c7,2 14,4 20,6 -1,2 -2,3 -3,4 -3,2 -7,4 -11,4 0,0 0,0 0,0 0,0 0,0 0,0 0,0 0,0 0,0z"/>
   <path class="fil13" d="M2934 1185l0 0c-1,2 -2,3 -3,4 -1,1 -3,2 -4,3l-1 1c-1,1 -2,2 -3,2 -4,3 -8,5 -13,6l-3 0c-3,1 -7,2 -11,2 -27,0 -50,-23 -50,-51 0,-4 0,-7 1,-11 0,-2 1,-3 2,-5 0,-2 1,-4 1,-5l1 0c8,-18 25,-30 45,-30l3 1 0 0c18,2 34,12 43,27 3,7 5,15 5,23 0,13 -5,24 -13,33zm137 -71l-28 -6c-3,-8 -6,-15 -10,-22l16 -25c3,-5 2,-11 -1,-14l-45 -45c-4,-4 -10,-5 -14,-2l-25 16c-7,-4 -15,-7 -23,-9l-6 -29c-1,-5 -6,-9 -11,-9l-64 0c-5,0 -9,4 -10,9l-7 29c-7,2 -15,5 -22,9l-25 -16c-4,-3 -10,-2 -14,2l-45 45c-4,3 -4,9 -2,14l16 25c-3,7 -6,14 -9,22l-29 6c-5,1 -9,6 -9,11l0 64c0,5 4,10 9,11l18 4 11 2c3,8 6,15 9,22l-1 2 -15 23c-2,5 -2,11 2,14l45 45c4,4 10,5 14,2l25 -16c7,4 15,7 22,9l7 29c1,5 5,9 10,9l64 0c4,0 7,-2 9,-5 1,-1 2,-2 2,-4l6 -29c8,-2 16,-5 23,-9l25 16c4,3 10,2 14,-2l45 -45c3,-3 4,-9 1,-14l-16 -25c4,-7 7,-14 10,-22l28 -6c6,-1 9,-6 9,-11l0 -64c0,-5 -3,-10 -9,-11z"/>
   <path class="fil48" d="M2713 1114l16 -3c0,0 0,0 0,0l-16 3z"/>
   <path class="fil49" d="M2704 1128l0 -3c0,-5 4,-10 9,-11l0 0 16 -3c-2,4 -3,8 -5,13l-20 4z"/>
   <path class="fil49" d="M2803 1032l-25 -16c-2,-1 -4,-2 -6,-2 -1,0 -2,1 -3,1l13 -13c2,-2 5,-4 8,-4 2,0 4,1 6,2l25 16c2,-1 4,-2 6,-3l-2 10c-7,2 -15,5 -22,9z"/>
   <path class="fil48" d="M2924 1345c0,0 0,0 0,0 0,0 0,0 0,0zm7 -3c1,0 2,-1 2,-2l0 0c1,0 1,-1 1,-2 0,2 -1,3 -3,4zm4 -6c0,0 0,0 0,0 0,0 0,0 0,0z"/>
   <path class="fil49" d="M2933 1340c-4,-1 -8,-3 -12,-4l2 -13c6,-2 11,-4 16,-6l-4 19 0 0c0,0 0,0 0,0 0,0 0,0 0,0 0,1 0,2 -1,2 0,1 0,2 -1,2l0 0z"/>
   <path class="fil48" d="M3062 1202l0 0 9 -2c6,-1 9,-6 9,-11l0 -64 0 64c0,5 -3,10 -9,11l-9 2zm-214 -217l0 0 2 -7 -2 7z"/>
   <path class="fil49" d="M3062 1202l0 -61c0,-5 -3,-10 -9,-11l-28 -6c-3,-8 -6,-15 -10,-23l16 -24c3,-5 2,-11 -1,-14l-45 -45c-2,-3 -5,-4 -8,-4 -2,0 -4,1 -6,2l-25 16c-7,-4 -15,-7 -23,-9l-6 -29c-1,-5 -6,-9 -11,-9l-58 0 2 -7c1,-5 5,-9 10,-9l64 0c5,0 10,4 11,9l6 29c8,2 16,5 23,9l25 -16c2,-1 4,-2 6,-2 3,0 6,2 8,4l45 45c2,2 3,5 3,8 0,2 -1,4 -2,6l-16 25 0 0c4,7 7,14 10,22l28 6c6,1 9,6 9,11l0 64c0,5 -3,10 -9,11l-9 2z"/>
   <path class="fil48" d="M3033 1228l0 0c0,0 0,0 0,0 0,0 0,0 0,0z"/>
   <path class="fil49" d="M2998 1315l32 -32c3,-3 4,-9 1,-14l-16 -25c4,-7 7,-14 10,-22l13 -3c-2,3 -3,6 -5,9 0,0 0,0 0,0l0 0 16 25c1,2 2,4 2,6 0,3 -1,6 -3,8l-45 45 0 0c-2,2 -3,3 -5,3z"/>
   <path class="fil50" d="M2908 1211c-5,1 -10,2 -16,2 -23,0 -43,-14 -51,-33 -4,-7 -5,-15 -5,-23 0,-31 25,-56 56,-56 3,0 5,0 7,1l0 0c18,2 34,12 43,27 4,8 7,18 7,28 0,25 -17,47 -41,54zm-16 -148c-52,0 -95,42 -95,94 0,52 43,94 95,94 53,0 96,-42 96,-94 0,-52 -43,-94 -96,-94z"/>
   <path class="fil51" d="M2947 1152c0,13 -5,24 -13,33l0 0c-1,2 -2,3 -3,4 -1,1 -3,2 -4,3l-1 1c-1,1 -2,2 -3,2 -4,3 -8,5 -13,6l-3 0c-3,1 -7,2 -11,2 -27,0 -50,-23 -50,-51 0,-4 0,-7 1,-11 0,-2 1,-3 2,-5 0,-2 1,-4 1,-5l1 0c8,-18 25,-30 45,-30l3 1 0 0c19,1 35,12 43,27 3,7 5,15 5,23zm-51 -85c-1,0 -3,0 -4,0 -1,0 -2,0 -3,1 -2,0 -3,0 -5,0 -4,0 -7,1 -11,2l0 0c-2,1 -3,1 -5,2l-1 0c-1,1 -3,2 -5,2l0 0c-2,1 -3,2 -5,3 -2,1 -3,1 -5,2l0 1c-2,1 -3,2 -5,3 -1,1 -2,2 -4,3 -2,1 -3,3 -5,5 -1,0 -2,1 -3,3 -2,1 -3,3 -5,4 -1,2 -2,3 -3,5 -1,1 -2,3 -3,4 -1,2 -2,4 -3,5 -6,12 -10,26 -10,40 0,47 38,85 85,85 32,0 59,-17 73,-42l2 -2c2,-3 3,-6 4,-10 1,-2 2,-4 3,-6 0,-1 0,-2 1,-4 0,-2 1,-4 1,-5l0 -3c1,-1 1,-3 1,-4 0,-2 0,-3 0,-5 0,-1 0,-2 0,-4 0,-47 -38,-85 -85,-85z"/>
   <path class="fil52" d="M2923 1195c1,0 2,-1 3,-2 -1,1 -2,2 -3,2zm4 -3c1,-1 3,-2 4,-3 -1,1 -3,2 -4,3z"/>
   <path class="fil52" d="M2847 1141c0,-2 1,-3 2,-5 -1,2 -2,3 -2,5zm2 -5c0,-2 1,-4 1,-5l0 0c0,1 -1,3 -1,5z"/>
   <path class="fil53" d="M2889 1215c-23,0 -42,-15 -48,-35 -2,-5 -3,-10 -3,-16 0,-13 5,-24 12,-33 0,1 -1,3 -1,5l0 0c-1,2 -2,3 -2,5l0 0c-1,4 -1,7 -1,11l0 0c0,28 23,51 50,51 4,0 8,-1 11,-2l3 0c5,-1 9,-3 13,-6l0 0c1,0 2,-1 3,-2l0 0 1 -1 0 0c1,-1 3,-2 4,-3l0 0c1,-1 2,-2 3,-4 -5,12 -14,21 -26,26 -6,2 -12,4 -19,4z"/>
   <path class="fil54" d="M2969 1197c0,-1 0,-1 0,-2l2 -2c-1,1 -1,2 -2,4zm8 -18c0,0 0,-1 1,-2 0,0 0,-1 0,-1 0,1 -1,2 -1,3zm2 -5c0,0 0,0 0,-1 0,-2 1,-4 1,-5l0 -3c1,-1 1,-3 1,-4 0,-2 0,-3 0,-5 0,-1 0,-2 0,-4 0,-47 -38,-85 -85,-85 -1,0 -3,0 -4,0 -1,0 -2,0 -3,1 -1,0 -2,0 -2,0 3,-1 6,-1 9,-1 47,0 85,38 85,85 0,8 -1,15 -2,22zm-157 -63c1,-1 2,-3 2,-4 0,0 0,0 0,0 -1,2 -1,3 -2,4zm4 -7c1,-1 3,-3 4,-5 -1,1 -2,2 -3,4 0,0 -1,1 -1,1zm6 -8c3,-3 6,-6 9,-8 -1,1 -2,2 -3,3 -1,0 -2,1 -3,3 -1,0 -2,1 -3,2zm15 -13c2,-1 3,-2 5,-3l0 0c-2,1 -3,2 -5,3 0,0 0,0 0,0zm8 -5c2,-1 4,-2 6,-3 -1,1 -3,1 -4,2 -1,0 -2,1 -2,1zm9 -4c2,-1 4,-2 5,-3 0,1 0,1 -1,1l-1 0c-1,1 -2,1 -3,2zm9 -4c1,0 2,0 3,0 -1,0 -2,0 -3,0l0 0zm12 -2c0,0 0,0 0,0 0,0 0,0 0,0z"/>
   <path class="fil53" d="M2964 1204c6,-12 10,-26 10,-40 0,-47 -38,-85 -85,-85 -28,0 -52,13 -68,33 1,0 1,0 1,-1 1,-1 1,-2 2,-4 0,0 0,0 0,0 1,-1 1,-2 2,-3 0,0 1,-1 1,-1 1,-2 2,-3 3,-4 1,-1 2,-2 2,-3 1,-1 2,-2 3,-2 1,-2 2,-3 3,-3 1,-1 2,-2 3,-3 2,-2 4,-4 6,-5 0,0 0,0 0,0 2,-1 3,-2 5,-3l0 0c1,-1 2,-1 3,-2 0,0 1,-1 2,-1 1,-1 3,-1 4,-2 1,-1 2,-1 3,-1 1,-1 2,-1 3,-2l1 0c1,0 1,0 1,-1 2,0 3,0 4,-1l0 0c1,0 2,0 3,0 3,-1 6,-2 9,-2 0,0 0,0 0,0 0,0 1,0 2,0 0,0 1,0 2,0 1,-1 2,-1 3,-1 1,0 3,0 4,0 47,0 85,38 85,85 0,2 0,3 0,4 0,2 0,3 0,5 0,1 0,3 -1,4l0 3c0,1 -1,3 -1,5 0,1 0,1 0,1 -1,1 -1,1 -1,2 0,0 0,1 0,1 -1,1 -1,2 -1,2 -2,5 -4,9 -6,14l-2 2c0,1 0,1 0,2 -2,2 -4,5 -5,7z"/>
   <path class="fil55" d="M2731 1204l-18 -4c-5,-1 -9,-6 -9,-11l0 -56c4,23 12,47 27,71z"/>
   <path class="fil56" d="M2790 1316l0 0c0,0 0,0 0,0 0,0 0,0 0,0zm0 0c-3,0 -6,-1 -8,-3 2,2 5,3 8,3zm6 -2c0,0 0,0 0,0 0,0 0,0 0,0z"/>
   <path class="fil55" d="M2924 1345c0,0 0,0 0,0 0,0 0,0 0,0zm-5 0l-59 0c-5,0 -9,-4 -10,-9l-7 -29c-7,-2 -15,-5 -22,-9l-25 16 0 0c0,0 0,0 0,0 0,0 0,0 0,0 -2,1 -4,2 -6,2 0,0 0,0 0,0 0,0 0,0 0,0 -3,0 -6,-1 -8,-3 0,-1 0,-1 0,-1l0 0 -45 -45c-2,-2 -3,-5 -3,-8 0,-2 0,-4 1,-6l15 -23c16,18 36,36 61,52 38,24 75,41 110,54l-2 9zm5 0c3,0 5,-1 7,-3 -2,2 -4,3 -7,3z"/>
   <path class="fil57" d="M2924 1345l-5 0 2 -9c4,1 8,3 12,4 0,1 -1,2 -2,2 -2,2 -4,3 -7,3 0,0 0,0 0,0 0,0 0,0 0,0l0 0z"/>
   <path class="fil14" d="M2847 1635c-16,0 -29,-12 -29,-28 0,-16 13,-29 29,-29 15,0 28,13 28,29 0,16 -13,28 -28,28zm-101 0c-16,0 -28,-12 -28,-28 0,-16 12,-29 28,-29 16,0 29,13 29,29 0,16 -13,28 -29,28zm-100 0c-16,0 -29,-12 -29,-28 0,-16 13,-29 29,-29 16,0 29,13 29,29 0,16 -13,28 -29,28zm172 -186l-143 0c-72,0 -129,58 -129,129l0 57c0,72 57,130 129,130l28 0c8,0 15,6 15,14l0 51 61 -61c3,-3 6,-4 10,-4l29 0c71,0 129,-58 129,-130l0 -57c0,-71 -58,-129 -129,-129z"/>
   <path class="fil24" d="M2746 1578c-16,0 -28,13 -28,29 0,16 12,28 28,28 16,0 29,-12 29,-28 0,-16 -13,-29 -29,-29z"/>
   <path class="fil24" d="M2847 1578c-16,0 -29,13 -29,29 0,16 13,28 29,28 15,0 28,-12 28,-28 0,-16 -13,-29 -28,-29z"/>
   <path class="fil24" d="M2646 1578c-16,0 -29,13 -29,29 0,16 13,28 29,28 16,0 29,-12 29,-28 0,-16 -13,-29 -29,-29z"/>
   <path class="fil2" d="M2630 776c-19,0 -34,-15 -34,-33 0,-18 15,-33 34,-33 18,0 33,15 33,33 0,18 -15,33 -33,33zm-117 0c-18,0 -33,-15 -33,-33 0,-18 15,-33 33,-33 19,0 33,15 33,33 0,18 -14,33 -33,33zm-116 0c-19,0 -34,-15 -34,-33 0,-18 15,-33 34,-33 18,0 33,15 33,33 0,18 -15,33 -33,33zm199 -216l-166 0c-83,0 -150,67 -150,150l0 66c0,83 67,150 150,150l33 0c9,0 17,8 17,17l0 60 71 -72c3,-3 8,-5 12,-5l33 0c83,0 150,-67 150,-150l0 -66c0,-83 -67,-150 -150,-150z"/>
   <path class="fil24" d="M2513 710c-18,0 -33,15 -33,33 0,18 15,33 33,33 19,0 33,-15 33,-33 0,-18 -14,-33 -33,-33z"/>
   <path class="fil24" d="M2630 710c-19,0 -34,15 -34,33 0,18 15,33 34,33 18,0 33,-15 33,-33 0,-18 -15,-33 -33,-33z"/>
   <path class="fil24" d="M2397 710c-19,0 -34,15 -34,33 0,18 15,33 34,33 18,0 33,-15 33,-33 0,-18 -15,-33 -33,-33z"/>
   <path class="fil27" d="M3124 1788c-18,0 -32,-15 -32,-32 0,-18 14,-32 32,-32 18,0 32,14 32,32 0,17 -14,32 -32,32zm-112 0c-17,0 -32,-15 -32,-32 0,-18 15,-32 32,-32 18,0 32,14 32,32 0,17 -14,32 -32,32zm-112 0c-17,0 -32,-15 -32,-32 0,-18 15,-32 32,-32 18,0 32,14 32,32 0,17 -14,32 -32,32zm192 -208l-160 0c-79,0 -143,64 -143,144l0 64c0,79 64,143 143,143l32 0c9,0 16,7 16,16l0 58 69 -69c3,-3 7,-5 11,-5l32 0c79,0 144,-64 144,-143l0 -64c0,-80 -65,-144 -144,-144z"/>
   <path class="fil24" d="M3012 1724c-17,0 -32,14 -32,32 0,17 15,32 32,32 18,0 32,-15 32,-32 0,-18 -14,-32 -32,-32z"/>
   <path class="fil24" d="M3124 1724c-18,0 -32,14 -32,32 0,17 14,32 32,32 18,0 32,-15 32,-32 0,-18 -14,-32 -32,-32z"/>
   <path class="fil24" d="M2900 1724c-17,0 -32,14 -32,32 0,17 15,32 32,32 18,0 32,-15 32,-32 0,-18 -14,-32 -32,-32z"/>
   <path class="fil14" d="M3644 1577l0 108c-1,13 -6,25 -14,33 -9,9 -21,14 -33,14l-249 -2c-10,0 -19,-3 -26,-8 -12,-8 -20,-22 -20,-38l0 -109c0,-14 7,-27 17,-36l0 1 161 118 139 -123c15,8 25,24 25,42z"/>
   <polygon class="fil43" points="3619,1535 3480,1658 3319,1540 3319,1540 3474,1421 "/>
   <polygon class="fil58" points="3567,1448 3567,1582 3480,1658 3369,1576 3369,1448 "/>
   <path class="fil59" d="M3567 1568l0 14 -87 76 -111 -82 0 -59c25,38 56,75 85,85 39,14 83,-12 113,-34z"/>
   <path class="fil60" d="M3630 1718c-9,9 -21,14 -33,14l-249 -2c-10,0 -19,-3 -26,-8l158 -64 150 60z"/>
   <path class="fil16" d="M568 1469c0,-13 -3,-23 -10,-31 -6,-7 -15,-11 -29,-11 -27,0 -41,19 -43,56l-56 0c1,-35 12,-61 31,-78 19,-18 44,-27 73,-27 30,0 53,8 69,23 16,16 24,37 24,62 0,21 -6,41 -18,61 -12,21 -27,40 -45,57 -19,17 -38,32 -58,44l127 0 0 48 -205 0 0 -44c93,-64 140,-118 140,-160z"/>
   <path class="fil16" d="M809 1449l-88 117 88 0 0 -117zm-147 168l0 -49 139 -187 62 0 0 185 38 0 0 51 -38 0 0 58 -58 0 0 -58 -143 0z"/>
   <polygon class="fil16" points="1078,1285 966,1750 910,1750 1022,1285 "/>
   <polygon class="fil61" points="1272,1425 1166,1675 1106,1675 1213,1432 1079,1432 1079,1382 1272,1382 "/>
  </g>
 </g>
</svg>
