<?xml version="1.0" encoding="UTF-8"?>
<!DOCTYPE svg PUBLIC "-//W3C//DTD SVG 1.1//EN" "http://www.w3.org/Graphics/SVG/1.1/DTD/svg11.dtd">
<!-- Creator: CorelDRAW X7 -->
<svg xmlns="http://www.w3.org/2000/svg" xml:space="preserve" width="3.99999in" height="4.33333in" version="1.1" style="shape-rendering:geometricPrecision; text-rendering:geometricPrecision; image-rendering:optimizeQuality; fill-rule:evenodd; clip-rule:evenodd"
viewBox="0 0 4000 4333"
 xmlns:xlink="http://www.w3.org/1999/xlink">
 <defs>
  <style type="text/css">
   <![CDATA[
    .str0 {stroke:#C8C5E2;stroke-width:3}
    .fil0 {fill:none}
    .fil11 {fill:#FEFEFE}
    .fil13 {fill:#F1F4FA}
    .fil19 {fill:#D1D4EB}
    .fil10 {fill:#C8DAF0}
    .fil27 {fill:#C8C5E2}
    .fil12 {fill:#F8CE08}
    .fil15 {fill:#F8CE08}
    .fil16 {fill:#FEFEFE;fill-rule:nonzero}
    .fil18 {fill:#FEFEFE;fill-rule:nonzero}
    .fil21 {fill:#FAB074;fill-rule:nonzero}
    .fil22 {fill:#F29C5D;fill-rule:nonzero}
    .fil4 {fill:#E7EDF8;fill-rule:nonzero}
    .fil6 {fill:#E5E6E5;fill-rule:nonzero}
    .fil5 {fill:#CED6E2;fill-rule:nonzero}
    .fil8 {fill:#C8DAF0;fill-rule:nonzero}
    .fil28 {fill:#C8C5E2;fill-rule:nonzero}
    .fil7 {fill:#BBC1CC;fill-rule:nonzero}
    .fil9 {fill:#B4C5D8;fill-rule:nonzero}
    .fil20 {fill:#A1BCDA;fill-rule:nonzero}
    .fil23 {fill:#2D3241;fill-rule:nonzero}
    .fil25 {fill:#323A59;fill-rule:nonzero}
    .fil26 {fill:#304D79;fill-rule:nonzero}
    .fil17 {fill:#314365;fill-rule:nonzero}
    .fil2 {fill:#32466E;fill-rule:nonzero}
    .fil14 {fill:#3E4095;fill-rule:nonzero}
    .fil29 {fill:url(#id0)}
    .fil24 {fill:url(#id1)}
    .fil1 {fill:url(#id2)}
    .fil3 {fill:url(#id3)}
   ]]>
  </style>
  <linearGradient id="id0" gradientUnits="userSpaceOnUse" x1="3175.86" y1="343.724" x2="3308.13" y2="343.724">
   <stop offset="0" style="stop-opacity:1; stop-color:#8B66AB"/>
   <stop offset="1" style="stop-opacity:1; stop-color:#5362AB"/>
  </linearGradient>
  <linearGradient id="id1" gradientUnits="userSpaceOnUse" xlink:href="#id0" x1="1357.57" y1="3143.72" x2="1515.78" y2="3143.72">
  </linearGradient>
  <linearGradient id="id2" gradientUnits="userSpaceOnUse" x1="1485.81" y1="3608.09" x2="2107.64" y2="3608.09">
   <stop offset="0" style="stop-opacity:1; stop-color:#CFB4D6"/>
   <stop offset="1" style="stop-opacity:1; stop-color:#AFB0D8"/>
  </linearGradient>
  <linearGradient id="id3" gradientUnits="userSpaceOnUse" xlink:href="#id2" x1="2011.96" y1="3302.1" x2="2441.59" y2="3302.1">
  </linearGradient>
 </defs>
 <g id="Layer_x0020_1">
  <metadata id="CorelCorpID_0Corel-Layer"/>
  <path class="fil0" d="M22826 17590l-41652 0c0,0 156,-3072 1820,-5575l0 3494 37885 0 0 -9841c88,-87 171,-177 251,-269 21,-24 41,-49 62,-73 52,-63 102,-127 150,-192 34,-46 68,-93 100,-139 17,-25 33,-49 49,-73m112 -175c19,-32 39,-65 58,-98 36,-63 72,-126 106,-191 6,-10 11,-21 17,-32 20,-38 40,-77 59,-116 20,-41 40,-82 59,-124 10,-21 20,-43 30,-64 22,-49 44,-99 65,-148 15,-36 30,-71 45,-107 8,-20 16,-41 24,-61m43 -112c18,-47 36,-95 53,-143 2,-6 4,-11 6,-16l0 0c41,-117 79,-235 116,-354 10,-32 19,-64 29,-96 23,-78 45,-156 67,-235 17,-64 34,-127 50,-191 4,-16 8,-32 12,-48 10,-40 20,-79 29,-119 16,-67 32,-134 47,-201 43,-190 82,-383 120,-576 3,-16 6,-32 9,-48 23,-123 46,-247 68,-370 11,-61 21,-121 32,-181 8,-50 17,-99 25,-148 8,-48 16,-96 24,-143 9,-52 18,-103 26,-155l4 -24 0 16944m-1267 -12772c2,-4 4,-7 6,-11 13,-20 25,-40 38,-60"/>
  <g id="_912796480">
   <path class="fil1" d="M1810 3788l-25 -55c-30,-1 -59,-5 -87,-13l-69 40 -95 -55 69 -40c-13,-16 -21,-33 -23,-50l-94 -15 35 -75 94 15c8,-7 18,-14 28,-20 11,-7 23,-12 35,-17l-25 -54 130 -20 25 54c30,1 60,5 87,13l69 -39 95 54 -69 40c14,16 22,33 23,50l95 15 -35 75 -95 -15c-8,8 -17,14 -28,21 -11,6 -23,11 -35,16l25 55 -130 20zm-13 -243c-28,0 -56,6 -77,19 -43,24 -43,64 0,89 21,12 49,18 77,18 28,0 55,-6 77,-18 42,-25 42,-65 0,-89 -22,-13 -49,-19 -77,-19z"/>
   <path class="fil2" d="M1707 3644c-29,-24 -25,-58 13,-80 42,-25 111,-25 154,0 34,19 41,48 20,72 -5,-6 -12,-12 -20,-17 -43,-24 -112,-24 -154,0 -9,5 -16,11 -21,17 3,3 5,6 8,8z"/>
   <path class="fil2" d="M1950 3697c11,-7 20,-13 28,-21l95 15 34 -74 1 0 -1 0 1 0 -1 1 1 0 -1 0 1 0 -1 1 1 0 -1 0 1 0 -1 1 1 0 -1 0 1 0 -1 1 1 0 -1 1 1 0 -1 0 1 0 -1 1 1 0 -1 0 1 0 -1 1 1 0 -1 0 1 0 -1 1 1 0 -1 0 1 0 -1 1 1 0 -1 0 1 1 -1 0 1 0 -1 1 1 0 -1 0 1 0 -1 1 1 0 -1 0 1 0 -1 1 1 0 -1 0 1 0 -1 1 1 0 -1 0 1 0 -1 1 1 0 -1 1 1 0 -1 0 1 0 -1 1 1 0 -1 0 1 0 -1 1 1 0 -1 0 1 0 -1 1 1 0 -1 0 1 0 -1 1 1 0 -1 1 1 0 -1 0 1 0 -1 1 1 0 -1 0 1 0 -1 1 1 0 -1 0 1 0 -1 1 1 0 -1 0 1 0 -1 1 1 0 -1 1 1 0 -1 0 1 0 -1 1 1 0 -1 0 1 0 -1 1 1 0 -1 0 1 0 -1 1 1 0 -1 0 1 0 -1 1 1 0 -1 0 1 1 -1 0 1 0 -1 1 1 0 -1 0 1 0 -1 1 1 0 -1 0 1 0 -1 1 1 0 -1 0 1 0 -1 1 1 0 -1 0 1 1 -1 0 1 0 -1 1 1 0 -1 0 1 0 -1 1 1 0 -1 0 1 0 -1 1 1 0 -1 0 1 0 -1 1 1 0 -1 0 1 0 -1 1 1 0 -1 1 1 0 -1 0 1 0 -1 1 1 0 -1 0 1 0 -1 1 1 0 -1 0 1 0 -1 1 1 0 -1 0 1 0 -1 1 1 0 -1 1 1 0 -1 0 1 0 -1 1 1 0 -1 0 1 0 -1 1 1 0 -1 0 1 0 -1 1 1 0 -1 0 1 0 -1 1 1 0 -1 0 1 1 -1 0 1 0 -1 1 1 0 -1 0 1 0 -1 1 1 0 -1 0 1 0 -1 1 1 0 -35 75 -95 -15c-8,7 -17,14 -28,20 -4,3 -9,5 -13,8l3 8 -25 -55c12,-5 24,-10 35,-16z"/>
   <path class="fil2" d="M1629 3760l69 -40c28,8 57,12 87,13l25 55 130 -20 0 0 0 0 0 0 0 1 0 0 0 0 0 0 0 1 0 0 0 0 0 0 0 1 0 0 0 0 0 0 0 1 0 0 0 0 0 1 0 0 0 0 0 1 0 0 0 0 0 0 0 1 0 0 0 0 0 0 0 1 0 0 0 0 0 0 0 1 0 0 0 0 0 1 0 0 0 0 0 1 0 0 0 0 0 0 0 1 0 0 0 0 0 0 0 1 0 0 0 0 0 0 0 1 0 0 0 0 0 0 0 1 0 0 0 1 0 0 0 0 0 0 0 1 0 0 0 0 0 0 0 1 0 0 0 0 0 0 0 1 0 0 0 0 0 0 0 1 0 0 0 1 0 0 0 0 0 0 0 1 0 0 0 0 0 0 0 1 0 0 0 0 0 0 0 1 0 0 0 0 0 0 0 1 0 0 0 0 0 1 0 0 0 0 0 1 0 0 0 0 0 0 0 1 0 0 0 0 0 0 0 1 0 0 0 0 0 0 0 1 0 0 0 0 0 1 0 0 0 0 0 1 0 0 0 0 0 0 0 1 0 0 0 0 0 0 0 1 0 0 0 0 0 0 0 1 0 0 0 0 0 0 0 1 0 0 0 1 0 0 0 0 0 0 0 1 0 0 0 0 0 0 0 1 0 0 0 0 0 0 0 1 0 0 0 0 0 0 0 1 0 0 0 1 0 0 0 0 0 0 0 1 0 0 0 0 0 0 0 1 0 0 0 0 0 0 0 1 0 0 0 0 0 0 0 1 0 0 0 0 0 1 0 0 0 0 0 1 0 0 0 0 0 0 0 1 0 0 0 0 0 0 0 1 0 0 0 0 0 0 0 1 0 0 0 0 0 1 0 0 0 0 0 1 0 0 0 0 0 0 0 1 0 0 0 0 0 0 0 1 0 0 0 0 -130 20 -25 -54c-30,-1 -59,-5 -87,-13l-69 39 -95 -54 1 -1 -1 0 1 0 -1 -1 1 0 -1 0 1 0 -1 -1 1 0 -1 0 1 -1 -1 0 1 0 -1 0 1 -1 -1 0 1 0 -1 0 1 -1 -1 0 1 0 -1 -1 1 0 -1 0 1 0 -1 -1 1 0 -1 0 1 0 -1 -1 1 0 -1 0 1 -1 -1 0 1 0 -1 0 1 -1 -1 0 1 0 -1 -1 1 0 -1 0 1 0 -1 -1 1 0 -1 0 1 0 -1 -1 1 0 -1 0 1 -1 -1 0 1 0 -1 0 1 -1 -1 0 1 0 -1 -1 1 0 -1 0 1 0 -1 -1 1 0 -1 0 1 0 -1 -1 1 0 -1 0 1 -1 -1 0 1 0 -1 0 1 -1 -1 0 1 0 -1 0 1 -1 -1 0 1 0 -1 -1 1 0 -1 0 1 0 -1 -1 1 0 -1 0 1 -1 -1 0 1 0 -1 0 1 -1 -1 0 1 0 -1 0 1 -1 -1 0 1 0 -1 -1 1 0 -1 0 1 0 -1 -1 1 0 -1 0 1 0 -1 -1 1 0 -1 0 1 -1 -1 0 1 0 -1 0 1 -1 -1 0 1 0 -1 -1 1 0 -1 0 1 0 -1 -1 1 0 -1 0 1 0 -1 -1 1 0 -1 0 1 -1 -1 0 1 0 -1 0 1 -1 -1 0 1 0 -1 -1 1 0 -1 0 1 0 -1 -1 1 0 -1 0 1 0 -1 -1 1 0 -1 0 1 -1 -1 0 1 0 -1 0 1 -1 -1 0 1 0 -1 0 1 -1 -1 0 1 0 -1 -1 1 0 -1 0 1 0 -1 -1 1 0 -1 0 1 -1 -1 0 1 0 -1 0 1 -1 -1 0 1 0 -1 0 1 -1 -1 0 1 0 -1 -1 1 0 -1 0 1 0 -1 -1 1 0 -1 0 1 0 -1 -1 1 0 -1 0 1 -1 -1 0 1 0 -1 0 1 -1 -1 0 1 0 -1 -1 1 0 -1 0 1 0 -1 -1 1 0 -1 0 1 0 -1 -1 1 0 -1 0 95 55z"/>
   <path class="fil2" d="M1486 3600l0 0 94 15c2,17 10,34 23,50l-22 13c0,-3 -1,-5 -1,-7l-94 -15 0 -1 0 0 0 0 0 0 0 -1 0 0 0 0 0 0 0 -1 0 0 0 0 0 0 0 -1 0 0 0 0 0 0 0 -1 0 0 0 -1 0 0 0 0 0 0 0 -1 0 0 0 0 0 0 0 -1 0 0 0 0 0 0 0 -1 0 0 0 0 0 0 0 -1 0 0 0 0 0 0 0 -1 0 0 0 -1 0 0 0 0 0 0 0 -1 0 0 0 0 0 0 0 -1 0 0 0 0 0 0 0 -1 0 0 0 0 0 0 0 -1 0 0 0 -1 0 0 0 0 0 0 0 -1 0 0 0 0 0 0 0 -1 0 0 0 0 0 0 0 -1 0 0 0 0 0 0 0 -1 0 0 0 -1 0 0 0 0 0 0 0 -1 0 0 0 0 0 0 0 -1 0 0 0 0 0 0 0 -1 0 0 0 0 0 0 0 -1 0 0 0 -1 0 0 0 0 0 0 0 -1 0 0 0 0 0 0 0 -1 0 0 0 0 0 0 0 -1 0 0 0 0 0 0 0 -1 0 0 0 0 0 0 0 -1 0 0 0 -1 0 0 0 0 0 0 0 -1 0 0 0 0 0 0 0 -1 0 0 0 0 0 0 0 -1 0 0 0 0 0 0 0 -1 0 0 0 -1 0 0 0 0 0 0 0 -1 0 0 0 0 0 0 0 -1 0 0 0 0 0 0 0 -1 0 0 0 0 0 0 0 -1 0 0 0 -1 0 0 0 0 0 0 0 -1 0 0 0 0 0 0 0 -1 0 0 0 0 0 0 0 -1 0 0 0 0 0 0 0 -1 0 0 0 -1 0 0 0 0 0 0 0 -1 0 0 0 0 0 0 0 -1 0 0 0 0 0 0 0 -1 0 0 0 0 0 0 0 -1 0 0 0 0 0 -1 0 0 0 0 0 -1 0 0 0 0 0 0 0 -1 0 0 0 0 0 0 0 -1z"/>
   <path class="fil2" d="M1657 3512l-4 -7 0 -1 0 0 0 0 0 -1 0 0 0 0 0 0 0 -1 0 0 0 0 0 0 0 -1 0 0 0 0 0 0 0 -1 0 0 0 0 0 -1 0 0 0 0 0 -1 0 0 0 0 0 0 0 -1 0 0 0 0 0 0 0 -1 0 0 0 0 0 0 0 -1 0 0 0 0 0 0 0 -1 0 0 0 -1 0 0 0 0 0 0 0 -1 0 0 0 0 0 0 0 -1 0 0 0 0 0 0 0 -1 0 0 0 0 0 0 0 -1 0 0 0 -1 0 0 0 0 0 0 0 -1 0 0 0 0 0 0 0 -1 0 0 0 0 0 0 0 -1 0 0 0 0 0 0 0 -1 0 0 0 -1 0 0 0 0 0 0 0 -1 0 0 0 0 0 0 0 -1 0 0 0 0 0 0 0 -1 0 0 0 0 0 0 0 -1 0 0 0 0 0 -1 0 0 0 0 0 -1 0 0 0 0 0 0 0 -1 0 0 0 0 0 0 0 -1 0 0 0 0 0 0 0 -1 0 0 0 0 0 0 0 -1 0 0 0 -1 0 0 0 0 0 0 0 -1 0 0 0 0 0 0 0 -1 0 0 0 0 0 0 0 -1 0 0 0 0 0 0 0 -1 0 0 0 -1 0 0 0 0 0 0 0 -1 0 0 0 0 0 0 0 -1 0 0 0 0 0 0 0 -1 0 0 0 0 0 0 0 -1 0 0 0 -1 0 0 0 0 0 0 0 -1 0 0 0 0 0 0 0 -1 0 0 0 0 0 0 0 -1 0 0 0 0 0 0 0 -1 0 0 0 0 0 -1 0 0 0 0 0 -1 0 0 0 0 0 0 0 -1 0 0 0 0 0 0 0 -1 0 0 0 0 0 0 0 -1 0 0 0 0 0 0 0 -1 0 0 0 -1 0 0 0 0 0 0 0 -1 0 0 0 0 0 0 0 -1 0 0 25 54c-7,3 -14,6 -21,9l0 0z"/>
   <path class="fil2" d="M2012 3594c-3,-14 -10,-29 -22,-43l69 -40 0 1 0 0 0 0 0 1 0 0 0 0 0 0 0 1 0 0 0 0 0 1 0 0 0 0 0 0 0 1 0 0 0 0 0 0 0 1 0 0 0 0 0 1 0 0 0 0 0 0 0 1 0 0 0 0 0 0 0 1 0 0 0 0 0 1 0 0 0 0 0 0 0 1 0 0 0 0 0 1 0 0 0 0 0 0 0 1 0 0 0 0 0 0 0 1 0 0 0 0 0 1 0 0 0 0 0 0 0 1 0 0 0 0 0 1 0 0 0 0 0 0 0 1 0 0 0 0 0 0 0 1 0 0 0 0 0 1 0 0 0 0 0 0 0 1 0 0 0 0 0 0 0 1 0 0 0 0 0 1 0 0 0 0 0 0 0 1 0 0 0 0 0 1 0 0 0 0 0 0 0 1 0 0 0 0 0 0 0 1 0 0 0 0 0 1 0 0 0 0 0 0 0 1 0 0 0 0 0 0 0 1 0 0 0 0 0 1 0 0 0 0 0 0 0 1 0 0 0 0 0 1 0 0 0 0 0 0 0 1 0 0 0 0 0 0 0 1 0 0 0 0 0 1 0 0 0 0 0 0 0 1 0 0 0 0 0 1 0 0 0 0 0 0 0 1 0 0 0 0 0 0 0 1 0 0 0 0 0 1 0 0 0 0 0 0 0 1 0 0 0 0 0 0 0 1 0 0 0 0 0 1 0 0 0 0 0 0 0 1 0 0 0 0 0 1 0 0 0 0 0 0 0 1 0 0 0 0 0 0 0 1 0 0 0 0 0 1 0 0 0 0 0 0 0 1 0 0 0 0 0 0 0 1 0 0 0 0 0 1 0 0 0 0 0 0 0 1 0 0 0 0 0 1 0 0 0 0 0 0 0 1 0 0 0 0 0 0 0 1 0 0 0 0 -47 27z"/>
   <path class="fil3" d="M2236 3426l-17 -38c-21,0 -41,-3 -60,-9l-48 28 -66 -38 48 -28c-9,-11 -15,-22 -16,-34l-65 -10 24 -52 65 10c6,-5 12,-10 20,-14 7,-4 15,-8 24,-11l-17 -38 89 -14 18 38c20,0 41,3 60,9l47 -28 66 38 -48 28c10,11 15,23 16,34l66 11 -24 51 -66 -10c-5,5 -12,10 -19,14 -8,5 -16,8 -25,12l18 37 -90 14zm-9 -167c-19,0 -39,4 -53,12 -30,17 -30,45 0,62 14,8 34,13 53,13 19,0 38,-5 53,-13 29,-17 29,-45 0,-62 -15,-8 -34,-12 -53,-12z"/>
   <path class="fil2" d="M2165 3327c-20,-17 -18,-40 9,-56 29,-17 77,-17 106,0 23,14 28,34 14,50 -3,-4 -8,-8 -14,-11 -29,-17 -77,-17 -106,0 -6,3 -11,7 -15,11 2,2 4,4 6,6z"/>
   <path class="fil2" d="M2333 3363c7,-4 14,-9 19,-14l66 10 23 -51 1 0 -1 0 1 0 -1 1 1 0 -1 0 1 0 -1 0 1 0 -1 1 1 0 -1 0 1 0 -1 1 1 0 -1 0 1 0 -1 0 1 0 -1 1 1 0 -1 0 1 0 -1 1 1 0 -1 0 1 0 -1 0 1 0 -1 1 1 0 -1 0 1 0 -1 0 1 0 -1 1 1 0 -1 0 1 0 -1 1 1 0 -1 0 1 0 -1 0 1 0 -1 1 1 0 -1 0 1 0 -1 0 1 0 -1 1 1 0 -1 0 1 0 -1 1 1 0 -1 0 1 0 -1 0 1 0 -1 1 1 0 -1 0 1 0 -1 1 1 0 -1 0 1 0 -1 0 1 0 -1 1 1 0 -1 0 1 0 -1 0 1 0 -1 1 1 0 -1 0 1 0 -1 1 1 0 -1 0 1 0 -1 0 1 0 -1 1 1 0 -1 0 1 0 -1 0 1 1 -1 0 1 0 -1 0 1 0 -1 1 1 0 -1 0 1 0 -1 0 1 0 -1 1 1 0 -1 0 1 0 -1 1 1 0 -1 0 1 0 -1 0 1 0 -1 1 1 0 -1 0 1 0 -1 0 1 0 -1 1 1 0 -1 0 1 0 -1 1 1 0 -1 0 1 0 -1 0 1 0 -1 1 1 0 -1 0 1 0 -1 1 1 0 -1 0 1 0 -1 0 1 0 -1 1 1 0 -1 0 1 0 -1 0 1 0 -1 1 1 0 -1 0 1 0 -1 1 1 0 -1 0 1 0 -1 0 1 0 -1 1 1 0 -1 0 1 0 -1 0 1 0 -1 1 1 0 -1 0 1 0 -1 1 1 0 -1 0 1 0 -1 0 1 0 -1 1 1 0 -1 0 1 0 -1 1 1 0 -1 0 1 0 -1 0 1 0 -1 1 1 0 -1 0 1 0 -1 0 1 0 -1 1 1 0 -1 0 1 0 -1 1 1 0 -1 0 1 0 -1 0 1 0 -1 1 1 0 -1 0 1 0 -24 52 -66 -10c-5,5 -12,9 -19,14 -3,2 -6,3 -10,5l3 5 -18 -37c9,-4 17,-7 25,-12z"/>
   <path class="fil2" d="M2111 3407l48 -28c19,6 39,9 60,9l17 38 90 -14 0 0 0 1 0 0 0 0 0 0 0 0 0 0 0 1 0 0 0 0 0 0 0 1 0 0 0 0 0 0 0 0 0 0 0 1 0 0 0 0 0 0 0 0 0 0 0 1 0 0 0 0 0 0 0 1 0 0 0 0 0 0 0 0 0 0 0 1 0 0 0 0 0 0 0 1 0 0 0 0 0 0 0 0 0 0 0 1 0 0 0 0 0 0 0 0 0 0 0 1 0 0 0 0 0 0 0 1 0 0 0 0 0 0 0 0 0 0 0 1 0 0 0 0 0 0 0 0 0 0 0 1 0 0 0 0 0 0 0 1 0 0 0 0 0 0 0 0 0 0 0 1 0 0 0 0 0 0 0 1 0 0 0 0 0 0 0 0 0 0 0 1 0 0 0 0 0 0 0 0 0 0 0 1 0 0 0 0 0 0 0 1 0 0 0 0 0 0 0 0 0 0 0 1 0 0 0 0 0 0 0 0 0 1 0 0 0 0 0 0 0 0 0 1 0 0 0 0 0 0 0 0 0 0 0 1 0 0 0 0 0 0 0 1 0 0 0 0 0 0 0 0 0 0 0 1 0 0 0 0 0 0 0 0 0 0 0 1 0 0 0 0 0 0 0 1 0 0 0 0 0 0 0 0 0 0 0 1 0 0 0 0 0 0 0 1 0 0 0 0 0 0 0 0 0 0 0 1 0 0 0 0 0 0 0 0 0 0 0 1 0 0 0 0 0 0 0 1 0 0 0 0 0 0 0 0 0 0 0 1 0 0 0 0 0 0 0 0 0 0 0 1 0 0 0 0 0 0 0 1 0 0 0 0 0 0 0 0 0 0 0 1 0 0 0 0 0 0 0 1 0 0 0 0 0 0 0 0 0 0 0 1 0 0 0 0 0 0 0 0 0 0 0 1 -90 14 -17 -38c-21,-1 -41,-4 -60,-9l-48 27 -66 -38 1 0 -1 0 1 0 -1 0 1 -1 -1 0 1 0 -1 0 1 0 -1 0 1 -1 -1 0 1 0 -1 0 1 0 -1 -1 1 0 -1 0 1 0 -1 0 1 -1 -1 0 1 0 -1 0 1 0 -1 -1 1 0 -1 0 1 0 -1 0 1 -1 -1 0 1 0 -1 0 1 0 -1 0 1 -1 -1 0 1 0 -1 0 1 0 -1 -1 1 0 -1 0 1 0 -1 0 1 -1 -1 0 1 0 -1 0 1 0 -1 -1 1 0 -1 0 1 0 -1 0 1 0 -1 -1 1 0 -1 0 1 0 -1 0 1 -1 -1 0 1 0 -1 0 1 0 -1 -1 1 0 -1 0 1 0 -1 0 1 -1 -1 0 1 0 -1 0 1 0 -1 0 1 -1 -1 0 1 0 -1 0 1 0 -1 -1 1 0 -1 0 1 0 -1 0 1 -1 -1 0 1 0 -1 0 1 0 -1 -1 1 0 -1 0 1 0 -1 0 1 0 -1 -1 1 0 -1 0 1 0 -1 0 1 -1 -1 0 1 0 -1 0 1 0 -1 -1 1 0 -1 0 1 0 -1 0 1 -1 -1 0 1 0 -1 0 1 0 -1 0 1 -1 -1 0 1 0 -1 0 1 0 -1 -1 1 0 -1 0 1 0 -1 0 1 -1 -1 0 1 0 -1 0 1 0 -1 -1 1 0 -1 0 1 0 -1 0 1 -1 -1 0 1 0 -1 0 1 0 -1 0 1 -1 -1 0 1 0 -1 0 1 0 -1 -1 1 0 -1 0 1 0 -1 0 1 -1 -1 0 1 0 -1 0 1 0 -1 -1 1 0 -1 0 1 0 -1 0 1 0 -1 -1 1 0 -1 0 1 0 -1 0 1 -1 -1 0 1 0 -1 0 1 0 -1 -1 1 0 -1 0 1 0 -1 0 1 -1 -1 0 1 0 -1 0 1 0 -1 0 1 -1 -1 0 1 0 -1 0 1 0 -1 -1 1 0 -1 0 1 0 -1 0 1 -1 -1 0 1 0 -1 0 66 38z"/>
   <path class="fil2" d="M2012 3297l0 0 65 10c1,12 7,23 16,34l-15 9c0,-1 -1,-3 -1,-5l-65 -10 0 0 0 0 0 -1 0 0 0 0 0 0 0 0 0 0 0 -1 0 0 0 0 0 0 0 0 0 0 0 -1 0 0 0 0 0 0 0 -1 0 0 0 0 0 0 0 0 0 0 0 -1 0 0 0 0 0 0 0 -1 0 0 0 0 0 0 0 0 0 0 0 -1 0 0 0 0 0 0 0 0 0 0 0 -1 0 0 0 0 0 0 0 -1 0 0 0 0 0 0 0 0 0 0 0 -1 0 0 0 0 0 0 0 0 0 0 0 -1 0 0 0 0 0 0 0 -1 0 0 0 0 0 0 0 0 0 0 0 -1 0 0 0 0 0 0 0 -1 0 0 0 0 0 0 0 0 0 0 0 -1 0 0 0 0 0 0 0 0 0 0 0 -1 0 0 0 0 0 0 0 -1 0 0 0 0 0 0 0 0 0 0 0 -1 0 0 0 0 0 0 0 -1 0 0 0 0 0 0 0 0 0 0 0 -1 0 0 0 0 0 0 0 0 0 0 0 -1 0 0 0 0 0 0 0 -1 0 0 0 0 0 0 0 0 0 0 0 -1 0 0 0 0 0 0 0 0 0 0 0 -1 0 0 0 0 0 0 0 -1 0 0 0 0 0 0 0 0 0 0 0 -1 0 0 0 0 0 0 0 -1 0 0 0 0 0 0 0 0 0 0 0 -1 0 0 0 0 0 0 0 0 0 0 0 -1 0 0 0 0 0 0 0 -1 0 0 0 0 0 0 0 0 0 0 0 -1 0 0 0 0 0 0 0 0 0 0 0 -1 0 0 0 0 0 0 0 -1 0 0 0 0 0 0 0 0 0 0 0 -1 0 0 0 0 0 0 0 -1 0 0 0 0 0 0 0 0 0 0 0 -1 0 0 0 0 0 0 0 0 0 0 0 -1 0 0 0 0 0 0 0 -1 0 0 0 0 0 0 0 0z"/>
   <path class="fil2" d="M2130 3236l-2 -5 0 -1 0 0 0 0 0 0 0 0 0 -1 0 0 0 0 0 0 0 0 0 0 0 -1 0 0 0 0 0 0 0 -1 0 0 0 0 0 0 0 0 0 0 0 -1 0 0 0 0 0 0 0 0 0 0 0 -1 0 0 0 0 0 0 0 -1 0 0 0 0 0 0 0 0 0 0 0 -1 0 0 0 0 0 0 0 -1 0 0 0 0 0 0 0 0 0 0 0 -1 0 0 0 0 0 0 0 0 0 0 0 -1 0 0 0 0 0 0 0 -1 0 0 0 0 0 0 0 0 0 0 0 -1 0 0 0 0 0 0 0 0 0 0 0 -1 0 0 0 0 0 0 0 -1 0 0 0 0 0 0 0 0 0 0 0 -1 0 0 0 0 0 0 0 -1 0 0 0 0 0 0 0 0 0 0 0 -1 0 0 0 0 0 0 0 0 0 0 0 -1 0 0 0 0 0 0 0 -1 0 0 0 0 0 0 0 0 0 0 0 -1 0 0 0 0 0 0 0 0 0 -1 0 0 0 0 0 0 0 0 0 -1 0 0 0 0 0 0 0 0 0 0 0 -1 0 0 0 0 0 0 0 -1 0 0 0 0 0 0 0 0 0 0 0 -1 0 0 0 0 0 0 0 0 0 0 0 -1 0 0 0 0 0 0 0 -1 0 0 0 0 0 0 0 0 0 0 0 -1 0 0 0 0 0 0 0 -1 0 0 0 0 0 0 0 0 0 0 0 -1 0 0 0 0 0 0 0 0 0 0 0 -1 0 0 0 0 0 0 0 -1 0 0 0 0 0 0 0 0 0 0 0 -1 0 0 0 0 0 0 0 0 0 0 0 -1 0 0 0 0 0 0 0 -1 0 0 0 0 0 0 0 0 0 0 0 -1 0 0 0 0 0 0 0 -1 0 0 0 0 0 0 0 0 0 0 0 -1 0 0 17 38c-5,2 -10,4 -15,6l0 0z"/>
   <path class="fil2" d="M2376 3293c-2,-11 -7,-21 -16,-30l48 -28 0 1 0 0 0 0 0 0 0 0 0 1 0 0 0 0 0 0 0 0 0 0 0 1 0 0 0 0 0 0 0 0 0 1 0 0 0 0 0 0 0 0 0 1 0 0 0 0 0 0 0 0 0 1 0 0 0 0 0 0 0 0 0 0 0 1 0 0 0 0 0 0 0 0 0 1 0 0 0 0 0 0 0 0 0 1 0 0 0 0 0 0 0 0 0 1 0 0 0 0 0 0 0 0 0 0 0 1 0 0 0 0 0 0 0 0 0 1 0 0 0 0 0 0 0 0 0 1 0 0 0 0 0 0 0 0 0 1 0 0 0 0 0 0 0 0 0 0 0 1 0 0 0 0 0 0 0 0 0 1 0 0 0 0 0 0 0 0 0 1 0 0 0 0 0 0 0 0 0 1 0 0 0 0 0 0 0 0 0 0 0 1 0 0 0 0 0 0 0 0 0 1 0 0 0 0 0 0 0 0 0 1 0 0 0 0 0 0 0 0 0 1 0 0 0 0 0 0 0 0 0 1 0 0 0 0 0 0 0 0 0 0 0 1 0 0 0 0 0 0 0 0 0 1 0 0 0 0 0 0 0 0 0 1 0 0 0 0 0 0 0 0 0 1 0 0 0 0 0 0 0 0 0 0 0 1 0 0 0 0 0 0 0 0 0 1 0 0 0 0 0 0 0 0 0 1 0 0 0 0 0 0 0 0 0 1 0 0 0 0 0 0 0 0 0 0 0 1 0 0 0 0 0 0 0 0 0 1 0 0 0 0 0 0 0 0 0 1 0 0 0 0 0 0 0 0 0 1 0 0 0 0 0 0 0 0 0 0 0 1 0 0 0 0 0 0 0 0 0 1 0 0 0 0 0 0 0 0 0 1 0 0 0 0 0 0 0 0 0 1 0 0 0 0 -32 19z"/>
   <path class="fil4" d="M2641 2115c-16,0 -30,-5 -42,-20 -108,-143 -106,-360 5,-501 76,-96 192,-157 254,-263 63,-108 57,-243 102,-360 63,-166 235,-283 412,-283 7,0 14,0 22,1 -110,72 -135,237 -106,365 29,123 86,243 86,369 0,-12 -1,-24 -2,-36 -93,8 -183,32 -267,72 2,-8 4,-15 6,-23 1,0 1,-1 2,-1 60,-55 115,-116 164,-180 4,-6 3,-13 -2,-17 -2,-1 -4,-2 -7,-2 -3,0 -7,1 -9,4 -41,54 -87,106 -136,153 30,-112 50,-226 62,-342 0,-7 -4,-12 -11,-13 0,0 0,0 -1,0 -6,0 -11,5 -11,11 -7,71 -18,142 -32,212l-71 -177c-1,-5 -6,-7 -10,-7 -2,0 -3,0 -5,0 -6,3 -9,10 -6,16l82 206c0,1 1,1 1,2 -12,58 -27,116 -45,172 -14,7 -27,15 -40,23 -43,-59 -82,-120 -117,-184 -2,-4 -6,-6 -10,-6 -2,0 -4,1 -6,2 -5,3 -8,10 -4,15 34,65 74,126 117,185 -31,20 -61,43 -89,67 -23,20 -44,41 -64,62 -9,-17 -18,-34 -26,-52 -2,-4 -7,-7 -11,-7 -2,0 -3,1 -5,1 -6,3 -8,10 -6,16 10,20 20,40 31,60 -115,129 -182,283 -186,458 6,-1 12,-3 18,-5l0 0c-13,5 -26,7 -37,7zm733 -692c0,0 0,0 0,0 0,0 0,0 0,0z"/>
   <path class="fil5" d="M2846 1655c-11,-20 -21,-40 -31,-60 -2,-6 0,-13 6,-16 2,0 3,-1 5,-1 4,0 9,3 11,7 8,18 17,35 26,52 -6,6 -11,12 -17,18zm170 -147c-43,-59 -83,-120 -117,-185 -4,-5 -1,-12 4,-15 2,-1 4,-2 6,-2 4,0 8,2 10,6 35,64 74,125 117,184 -7,4 -13,8 -20,12zm60 -35c18,-56 33,-114 45,-172 0,-1 -1,-1 -1,-2l-82 -206c-3,-6 0,-13 6,-16 2,0 3,0 5,0 4,0 9,2 10,7l71 177c14,-70 25,-141 32,-212 0,-6 5,-11 11,-11 1,0 1,0 1,0 7,1 11,6 11,13 -12,116 -32,230 -62,342 49,-47 95,-99 136,-153 2,-3 6,-4 9,-4 3,0 5,1 7,2 5,4 6,11 2,17 -49,64 -104,125 -164,180 -1,0 -1,1 -2,1 -2,8 -4,15 -6,23 -10,4 -19,9 -29,14z"/>
   <path class="fil6" d="M3369 1479c2,-14 4,-28 4,-42 0,-4 1,-9 1,-14 0,5 -1,10 -1,14 0,14 -2,28 -4,42l0 0zm5 -56c0,0 0,0 0,0 0,0 0,0 0,0z"/>
   <path class="fil5" d="M2660 2113c4,-175 71,-329 186,-458 11,20 23,40 35,59 -109,108 -181,240 -203,394 -6,2 -12,4 -18,5zm238 -416c-13,-19 -24,-39 -35,-60 20,-21 41,-42 64,-62 28,-24 58,-47 89,-67 11,15 22,30 34,45 -5,12 -9,25 -14,38 -13,8 -26,16 -39,25 -35,26 -69,53 -99,81zm170 -125c13,-37 25,-75 37,-113 84,-40 174,-64 267,-72 1,12 2,24 2,36 0,0 0,0 0,0 0,0 0,0 0,0 0,5 -1,10 -1,14 0,14 -2,28 -4,42 -105,10 -208,41 -301,93zm-9 -46c-8,-10 -16,-20 -23,-30 13,-8 26,-16 40,-23 -5,18 -11,36 -17,53z"/>
   <path class="fil7" d="M2881 1714c-12,-19 -24,-39 -35,-59 6,-6 11,-12 17,-18 11,21 22,41 35,60 -6,6 -12,11 -17,17zm155 -123c5,-13 9,-26 14,-38 -12,-15 -23,-30 -34,-45 7,-4 13,-8 20,-12 7,10 15,20 23,30 6,-17 12,-35 17,-53 10,-5 19,-10 29,-14 -12,38 -24,76 -37,113 -11,6 -21,12 -32,19z"/>
   <path class="fil8" d="M2671 2178c214,11 430,-49 608,-169 177,-120 314,-298 384,-501 -227,-68 -472,-28 -666,108 -193,137 -314,326 -326,562z"/>
   <path class="fil6" d="M2580 2287c-2,0 -4,-1 -6,-2 0,0 -1,-1 -1,-1 -6,-4 -7,-12 -2,-17 32,-42 67,-83 102,-122 -1,11 -2,22 -2,33 1,0 3,0 5,0 -30,34 -59,68 -86,104 -3,3 -6,5 -10,5z"/>
   <path class="fil9" d="M2676 2178c-2,0 -4,0 -5,0 0,-11 1,-22 2,-33 54,-60 112,-117 172,-171 1,-1 2,-2 3,-3 32,-28 64,-55 98,-82 14,-92 48,-184 96,-264 2,-4 6,-6 10,-6 2,0 5,1 6,2 6,3 8,11 5,16 -42,70 -73,149 -89,230 66,-51 134,-98 205,-141 0,-1 0,-1 1,-2 38,-75 84,-147 135,-215 2,-3 6,-4 9,-4 3,0 6,0 8,2 5,4 6,12 2,17 -43,56 -81,116 -115,178 104,-60 213,-113 325,-156 2,-1 3,-1 5,-1 5,0 9,3 11,8 3,6 -1,13 -7,15 -69,27 -137,57 -204,91l197 21c7,1 11,7 11,14 -1,6 -6,11 -12,11 -1,0 -1,-1 -2,-1l-229 -25c-1,0 -2,0 -3,0 -72,37 -141,79 -208,125 82,33 167,60 253,80 7,2 11,8 9,15 -1,6 -6,9 -12,9 0,0 -1,0 -2,0 -93,-21 -184,-51 -272,-88 -38,27 -76,55 -113,84 -1,1 -3,2 -5,3 -28,23 -56,47 -84,71 74,29 151,51 229,65 6,1 11,7 10,14 -1,5 -6,10 -12,10 -1,0 -2,0 -2,-1 -84,-14 -166,-38 -245,-70 -64,57 -124,118 -181,182z"/>
   <path class="fil4" d="M1372 3021c-12,0 -25,-3 -38,-7l0 0c6,2 12,4 18,5l0 0c-4,-180 -74,-339 -192,-472 11,-21 21,-41 31,-62 3,-6 1,-14 -5,-16 -2,-1 -4,-1 -5,-1 -5,0 -9,2 -11,6 -9,19 -18,36 -27,54 -21,-22 -43,-43 -67,-64 -29,-25 -59,-48 -91,-69 44,-60 85,-124 121,-190 3,-6 1,-13 -5,-17 -2,-1 -4,-1 -6,-1 -4,0 -8,2 -10,6 -36,66 -76,129 -121,189 -14,-8 -27,-16 -41,-23 -18,-58 -34,-118 -47,-177 0,-1 1,-2 1,-3l85 -212c2,-7 -1,-14 -7,-16 -1,-1 -3,-1 -4,-1 -5,0 -9,3 -11,8l-73 182c-14,-72 -25,-145 -33,-219 0,-6 -5,-11 -12,-11 0,0 0,0 -1,0 -6,1 -11,7 -11,13 12,120 34,238 64,353 -50,-49 -97,-101 -140,-157 -2,-3 -6,-5 -10,-5 -2,0 -5,1 -7,3 -5,4 -6,11 -2,17 51,66 108,129 170,186 0,0 1,0 1,1 2,8 5,15 7,23 -87,-41 -180,-66 -276,-73 -1,17 -2,34 -1,51 1,14 2,29 4,43l0 0c-2,-14 -3,-29 -4,-43 -5,-136 57,-263 88,-395 30,-132 4,-302 -109,-377 8,0 15,0 22,0 183,0 361,120 426,291 45,121 39,260 104,372 64,108 184,171 262,270 115,146 117,369 5,517 -12,16 -26,21 -42,21z"/>
   <path class="fil5" d="M1160 2547c-6,-6 -12,-13 -17,-19 9,-18 18,-35 27,-54 2,-4 6,-6 11,-6 1,0 3,0 5,1 6,2 8,10 5,16 -10,21 -20,41 -31,62zm-175 -152c-7,-4 -14,-8 -21,-13 45,-60 85,-123 121,-189 2,-4 6,-6 10,-6 2,0 4,0 6,1 6,4 8,11 5,17 -36,66 -77,130 -121,190zm-62 -36c-10,-5 -20,-10 -30,-15 -2,-8 -5,-15 -7,-23 0,-1 -1,-1 -1,-1 -62,-57 -119,-120 -170,-186 -4,-6 -3,-13 2,-17 2,-2 5,-3 7,-3 4,0 8,2 10,5 43,56 90,108 140,157 -30,-115 -52,-233 -64,-353 0,-6 5,-12 11,-13 1,0 1,0 1,0 7,0 12,5 12,11 8,74 19,147 33,219l73 -182c2,-5 6,-8 11,-8 1,0 3,0 4,1 6,2 9,9 7,16l-85 212c0,1 -1,2 -1,3 13,59 29,119 47,177z"/>
   <path class="fil5" d="M1352 3019c-6,-1 -12,-3 -18,-5 -24,-159 -98,-295 -210,-407 13,-19 25,-40 36,-60 118,133 188,292 192,472zm-245 -429c-32,-29 -66,-57 -103,-83 -13,-10 -27,-18 -40,-27 -5,-13 -10,-26 -14,-39 11,-15 23,-30 35,-46 32,21 62,44 91,69 24,21 46,42 67,64 -12,21 -24,42 -36,62zm-176 -129c-96,-53 -202,-86 -311,-96 -2,-14 -3,-29 -4,-43 -1,-17 0,-34 1,-51 96,7 189,32 276,73 12,40 24,79 38,117zm9 -47c-6,-18 -12,-37 -17,-55 14,7 27,15 41,23 -8,11 -16,22 -24,32z"/>
   <path class="fil7" d="M1124 2607c-6,-5 -12,-11 -17,-17 12,-20 24,-41 36,-62 5,6 11,13 17,19 -11,20 -23,41 -36,60zm-160 -127c-11,-6 -22,-13 -33,-19 -14,-38 -26,-77 -38,-117 10,5 20,10 30,15 5,18 11,37 17,55 8,-10 16,-21 24,-32 7,5 14,9 21,13 -12,16 -24,31 -35,46 4,13 9,26 14,39z"/>
   <path class="fil8" d="M1341 3086c-221,12 -445,-51 -628,-174 -183,-124 -324,-308 -396,-517 234,-70 487,-29 687,112 199,140 324,335 337,579z"/>
   <path class="fil6" d="M1434 3198c-4,0 -7,-2 -10,-5 -28,-36 -58,-72 -89,-107 2,0 4,0 6,0 -1,-11 -2,-23 -3,-34 37,41 72,83 106,126 4,5 3,13 -2,17 -1,1 -1,1 -2,1 -2,1 -4,2 -6,2z"/>
   <path class="fil9" d="M1335 3086c-58,-66 -121,-129 -186,-188 -82,34 -166,58 -253,73 -1,0 -1,0 -2,0 -6,0 -11,-4 -12,-10 -1,-7 3,-14 10,-15 81,-14 160,-36 236,-67 -29,-24 -58,-49 -87,-72 -2,-1 -4,-2 -5,-4 -38,-30 -77,-59 -116,-86 -91,38 -185,68 -281,90 -1,1 -2,1 -2,1 -6,0 -11,-4 -13,-10 -1,-7 3,-13 10,-15 89,-20 176,-49 261,-83 -69,-47 -141,-90 -215,-129 -1,0 -2,1 -3,1l-236 26c-1,0 -1,0 -2,0 -6,0 -11,-5 -12,-11 -1,-7 4,-13 11,-14l203 -23c-69,-34 -139,-65 -210,-93 -7,-2 -10,-10 -8,-16 2,-5 7,-8 12,-8 1,0 3,0 4,1 117,45 229,99 336,161 -35,-64 -74,-125 -118,-184 -5,-5 -4,-13 2,-17 2,-2 5,-3 7,-3 4,0 8,2 10,5 53,70 100,144 140,222 0,1 0,1 1,2 73,44 143,93 211,145 -17,-83 -48,-164 -92,-237 -3,-6 -1,-13 5,-17 2,-1 4,-1 6,-1 4,0 9,2 11,6 50,82 84,176 99,272 35,27 68,56 101,85 1,1 2,2 3,3 62,55 121,114 177,176 1,11 2,23 3,34 -2,0 -4,0 -6,0z"/>
   <path class="fil10" d="M2868 317l-1862 1075c-66,38 -120,131 -120,207l9 2031c0,75 54,106 120,68l1862 -1075c65,-38 119,-131 119,-206l-9 -2031c0,-76 -54,-107 -119,-69z"/>
   <path class="fil11" d="M2845 334l-1817 1050c-64,37 -117,127 -117,201l3 2010c0,73 53,103 117,66l1818 -1049c64,-37 116,-128 116,-201l-3 -2010c0,-74 -52,-104 -117,-67z"/>
   <path class="fil12" d="M2846 334l-1818 1050c-64,37 -117,127 -117,201l0 337 2051 -1184 0 -337c0,-74 -52,-104 -116,-67z"/>
   <path class="fil13" d="M1368 1471c20,-12 36,-39 36,-62 0,-22 -16,-31 -36,-20 -20,11 -36,39 -36,61 0,23 16,32 36,21z"/>
   <path class="fil13" d="M1226 1553c19,-11 35,-39 35,-61 0,-23 -16,-32 -35,-21 -20,12 -36,39 -36,62 0,22 16,31 36,20z"/>
   <path class="fil13" d="M1083 1635c20,-11 36,-39 36,-61 0,-23 -16,-32 -36,-21 -19,12 -35,39 -35,62 0,22 16,31 35,20z"/>
   <path class="fil14" d="M1278 2861l128 79 300 -321 120 -435c5,-18 -3,-38 -19,-48l-79 -49c-13,-8 -30,-8 -44,0l-370 209c-22,13 -36,37 -36,63l0 502z"/>
   <path class="fil15" d="M1406 2940l429 -242 0 -509c0,-16 -18,-26 -32,-18l-360 204c-23,13 -37,37 -37,62l0 503z"/>
   <path class="fil16" d="M1569 2528c0,-38 24,-82 54,-99 29,-17 54,0 54,38 0,27 -13,56 -30,78l17 86 -83 47 18 -106c-18,-1 -30,-17 -30,-44z"/>
   <path class="fil15" d="M1441 2314c15,0 28,-12 28,-27l0 -187c0,-66 44,-145 97,-173 19,-10 36,-12 48,-5 14,9 23,31 23,59l0 187c0,15 12,27 27,27 16,0 28,-12 28,-27l0 -187c0,-48 -18,-87 -50,-106 -29,-18 -65,-16 -102,3 -71,38 -126,136 -126,222l0 187c0,15 12,27 27,27z"/>
   <path class="fil17" d="M2356 1751c-39,26 -71,15 -71,-24 0,-39 32,-92 71,-118 39,-26 71,-15 71,24 0,39 -32,92 -71,118zm53 -26c27,-34 44,-76 44,-109 0,-54 -44,-69 -97,-33 -53,35 -97,107 -97,161 0,34 17,52 44,52 -60,61 -102,146 -102,213l26 -17c0,-72 58,-168 129,-215 71,-47 129,-28 129,44l26 -18c0,-66 -42,-95 -102,-78z"/>
   <polygon class="fil14" points="2857,1811 1955,2331 1955,2205 2857,1684 "/>
   <polygon class="fil14" points="2857,2017 1955,2537 1955,2411 2857,1890 "/>
   <path class="fil18" d="M2294 2295c0,15 -13,27 -28,26 -15,0 -27,-13 -26,-28 0,-15 13,-27 28,-26 15,1 27,13 26,28z"/>
   <path class="fil18" d="M2396 2235c-1,15 -14,27 -28,26 -15,0 -27,-13 -27,-28 1,-14 14,-26 28,-26 15,1 27,13 27,28z"/>
   <path class="fil18" d="M2497 2176c0,15 14,26 -1,26 -14,-1 -26,-13 -26,-28 1,-15 13,-27 28,-26 15,0 0,13 -1,28z"/>
   <path class="fil18" d="M2599 2116c-1,15 -13,27 -28,26 -15,0 -27,-13 -27,-28 1,-15 14,-26 28,-26 15,1 27,13 27,28z"/>
   <path class="fil18" d="M2700 2057c0,14 -13,26 -28,26 -15,-1 -27,-13 -26,-28 0,-15 13,-27 28,-27 15,1 27,14 26,29z"/>
   <path class="fil15" d="M2757 2404l-622 359c-13,7 -29,-2 -29,-17l0 -122c0,-6 4,-13 10,-16l621 -359c13,-7 29,2 29,17l0 121c0,7 -3,13 -9,17z"/>
   <polygon class="fil16" points="2302,2622 2302,2548 2320,2538 2320,2596 2344,2582 2344,2598 "/>
   <path class="fil16" d="M2370 2546c0,14 5,19 13,14 5,-3 8,-7 10,-11 2,-5 3,-11 3,-18 0,-8 -1,-12 -3,-15 -2,-2 -5,-2 -9,1 -9,5 -14,14 -14,29zm45 -26c0,13 -3,24 -8,33 -6,10 -13,17 -24,23 -10,6 -17,7 -23,4 -5,-4 -8,-11 -8,-24 0,-12 3,-23 8,-33 6,-9 13,-17 24,-23 10,-6 17,-7 23,-4 5,4 8,12 8,24z"/>
   <path class="fil16" d="M2452 2492l28 -16 0 40c-8,7 -16,14 -25,19 -10,6 -18,7 -23,3 -5,-3 -8,-11 -8,-23 0,-12 3,-23 9,-33 6,-10 14,-18 25,-24 4,-3 8,-4 11,-6 4,-1 7,-2 9,-2l-5 19c-5,0 -10,2 -15,5 -5,3 -9,7 -12,12 -3,6 -4,12 -4,19 0,7 1,11 4,14 2,2 6,1 10,-1 3,-2 5,-3 8,-5l0 -12 -12 7 0 -16z"/>
   <polygon class="fil16" points="2493,2512 2493,2438 2510,2428 2510,2502 "/>
   <path class="fil16" d="M2585 2459l-22 13 -24 -39 0 1c0,7 1,14 1,18l0 33 -16 9 0 -74 23 -13 23 38 0 0c0,-7 0,-13 0,-18l0 -33 15 -9 0 74z"/>
   <path class="fil19" d="M3632 426l-782 452c-28,16 -51,55 -51,87l0 646c0,32 23,45 51,29l782 -452c28,-16 51,-55 51,-87l0 -646c0,-32 -23,-45 -51,-29z"/>
   <path class="fil15" d="M3618 451l-748 432c-26,15 -48,52 -48,82l0 618c0,30 22,42 48,27l748 -432c27,-15 48,-52 48,-82l0 -618c0,-30 -21,-43 -48,-27z"/>
   <path class="fil16" d="M3225 896c-23,15 -42,8 -42,-15 0,-22 19,-53 42,-68 23,-16 41,-9 41,14 0,22 -18,53 -41,69zm31 -15c15,-21 25,-45 25,-64 0,-32 -25,-40 -56,-20 -31,21 -57,63 -57,94 0,20 10,31 26,31 -35,35 -60,85 -60,124l15 -10c0,-42 34,-98 76,-125 41,-28 75,-16 75,25l15 -10c0,-39 -24,-56 -59,-45z"/>
   <polygon class="fil16" points="3586,922 2907,1314 2907,1219 3586,827 "/>
   <polygon class="fil16" points="3586,1072 2907,1464 2907,1369 3586,976 "/>
   <path class="fil17" d="M3162 1281c0,12 -10,21 -21,20 -11,0 -20,-10 -19,-21 0,-11 9,-20 21,-20 11,1 20,10 19,21z"/>
   <path class="fil17" d="M3239 1237c-1,11 -10,20 -21,19 -12,0 -20,-10 -20,-21 0,-11 10,-20 21,-20 11,1 20,10 20,22z"/>
   <path class="fil17" d="M3315 1192c0,11 -10,20 -21,19 -11,0 -20,-10 -20,-21 1,-11 10,-20 22,-19 11,0 20,9 19,21z"/>
   <path class="fil17" d="M3392 1147c-1,11 -10,20 -21,19 -12,0 -21,-9 -20,-21 0,-11 10,-20 21,-19 11,0 20,9 20,21z"/>
   <path class="fil17" d="M3468 1102c0,11 -10,20 -21,19 -11,0 -20,-9 -20,-21 1,-11 10,-20 21,-19 12,0 20,10 20,21z"/>
   <path class="fil20" d="M1281 2731c69,28 72,193 87,214 24,33 122,159 134,179 12,20 -33,52 -48,38 -11,-12 -107,-109 -146,-148 -11,-10 -17,-24 -18,-39l-9 -244z"/>
   <path class="fil2" d="M1024 4045c0,0 9,-354 9,-391 0,-38 -39,-290 -3,-406l275 26c0,0 5,117 5,125 0,14 -41,378 -36,554l-108 10c0,0 -2,-234 19,-325 1,-55 -3,-179 -3,-179 0,0 -36,166 -40,205 -4,38 -28,388 -28,388 0,0 -53,-7 -90,-7z"/>
   <path class="fil8" d="M955 2988c0,0 -12,-45 22,-117 20,-41 75,-76 142,-108 127,-62 177,-47 194,14 8,28 15,134 7,193 -14,96 -19,256 -11,316 2,12 -34,42 -109,58 -55,12 -179,8 -191,-42l7 -293 -61 -21z"/>
   <path class="fil21" d="M1235 2781c0,20 -26,37 -59,37 -32,0 -58,-17 -58,-37 0,-21 26,-37 58,-37 33,0 59,16 59,37z"/>
   <path class="fil21" d="M1228 2797l-96 0c-3,0 -5,-2 -5,-5l0 -107 104 0 0 110c0,1 -1,2 -3,2z"/>
   <path class="fil22" d="M1138 2685c0,48 28,90 73,105 10,4 20,-4 20,-14l0 -91 -93 0z"/>
   <path class="fil21" d="M1269 2640c-4,69 -17,123 -53,123 -52,0 -89,-55 -89,-124 0,-69 3,-107 55,-107 53,0 92,41 87,108z"/>
   <path class="fil23" d="M1127 2734c0,0 -1,-34 8,-79 5,-26 9,-36 31,-41 7,-1 58,15 71,14 16,-2 29,-32 32,-9 0,0 9,-16 -2,-55 -10,-32 -151,-77 -169,46 -9,62 20,92 29,124z"/>
   <path class="fil21" d="M1152 2668c0,17 1,34 -12,34 -13,0 -30,-22 -30,-38 0,-17 5,-27 18,-27 14,0 24,14 24,31z"/>
   <path class="fil21" d="M1279 3277c-1,0 -1,0 -2,0 -32,-1 -37,-41 -6,-47 13,-3 27,-4 38,-9l16 -25c4,-6 23,-24 28,-20 4,3 -9,24 -11,29 0,0 -14,23 4,15 15,-8 53,-71 51,-24 -2,53 -74,81 -118,81z"/>
   <path class="fil20" d="M954 2958c0,0 13,215 18,236 4,21 73,129 305,91 0,0 8,-41 4,-69 -46,-3 -185,-2 -217,-50 -10,-17 -14,-116 -14,-116 7,-55 -41,-101 -96,-92z"/>
   <path class="fil23" d="M1167 3958c0,0 1,42 0,53 -1,11 100,74 146,82 25,4 40,-6 49,-16 8,-9 6,-23 -3,-31 -57,-45 -92,-93 -92,-93l-100 5z"/>
   <path class="fil23" d="M1031 4043c0,0 -10,53 -8,65 2,13 10,94 79,90 69,-3 23,-86 19,-97 -4,-11 -14,-58 -14,-58l-76 0z"/>
   <path class="fil21" d="M1230 2740c-1,-4 -2,-10 5,-16 4,-4 12,-7 14,-1 3,5 -4,16 -7,18 -4,2 -11,2 -12,-1z"/>
   <polygon class="fil24" points="1358,3200 1421,3194 1516,3087 1452,3094 "/>
   <polygon class="fil25" points="1358,3200 1342,3183 1437,3077 1452,3094 "/>
   <polygon class="fil25" points="1516,3087 1500,3070 1437,3077 1452,3094 "/>
   <path class="fil21" d="M1496 3110c-9,9 -19,11 -37,13 -18,3 -36,2 -39,10 -4,9 15,9 15,9 0,0 29,0 27,3 -1,3 -27,6 -36,6 -16,1 -23,1 -23,8 -1,12 43,4 42,8 -1,4 -35,8 -38,10 -3,2 -1,6 12,8 13,2 43,1 56,-7 30,-19 46,-53 41,-68 -6,-16 -6,-16 -6,-16l-14 16z"/>
   <path class="fil23" d="M1160 2706l0 0c-7,-26 -21,-69 0,-90l-22 0 0 68c0,12 10,22 22,22z"/>
   <path class="fil21" d="M2748 2402c0,0 -3,-26 -5,-35 -2,-9 -7,-43 -16,-54 -9,-11 -9,16 -12,24 -2,8 -14,12 -23,1 -9,-11 -19,-42 -27,-56 -8,-15 -47,36 -42,63 5,27 16,48 36,65 20,18 44,22 51,30l38 -38z"/>
   <path class="fil23" d="M3266 3717c0,0 3,11 -43,14 -46,2 -95,2 -102,32 -6,31 37,66 87,73 44,6 119,2 161,-7 7,-1 13,-5 14,-12 2,-15 4,-41 -6,-70 -13,-40 -111,-30 -111,-30z"/>
   <path class="fil23" d="M3139 3752c0,0 4,10 -42,13 -46,3 -96,3 -102,33 -6,30 30,54 80,61 44,6 130,10 165,11 7,1 13,-4 14,-11 2,-15 5,-42 3,-70 -3,-43 -118,-37 -118,-37z"/>
   <path class="fil26" d="M3368 3003c0,0 5,371 8,417 4,45 14,319 14,319 0,0 -78,39 -138,12l-35 -707 151 -41z"/>
   <path class="fil2" d="M3259 3026l0 372c4,109 10,395 10,395 -89,10 -145,-39 -145,-39 5,-48 0,-323 0,-323 -19,-142 -29,-371 -31,-413 0,-5 -1,-7 -1,-7l167 15z"/>
   <path class="fil20" d="M3422 2478c0,0 57,177 44,271 0,0 -45,39 -98,63l54 -334z"/>
   <path class="fil21" d="M3112 2314c0,68 45,123 101,123 55,0 100,-55 99,-123 0,-69 -45,-124 -100,-124 -55,0 -100,56 -100,124z"/>
   <path class="fil8" d="M3284 2410c0,0 -72,-5 -129,34 0,0 -4,12 -15,20 -12,7 -96,39 -96,39 0,0 53,354 24,515 0,0 123,95 313,0 0,0 28,-439 41,-540 0,0 -32,-40 -138,-68z"/>
   <path class="fil20" d="M3044 2503l-142 33 -152 -155c0,0 -54,16 -65,62l182 207 223 -20c0,0 54,-111 -46,-127z"/>
   <path class="fil23" d="M3176 2185c0,0 -109,22 -79,80 18,34 122,46 122,46 0,0 -55,30 -14,44 0,0 6,54 81,50 0,0 111,-146 -25,-215 0,0 -38,-14 -85,-5z"/>
   <path class="fil27" d="M1604 506c21,-12 35,-43 32,-70 -4,-26 -24,-37 -45,-25 -21,12 -36,44 -32,70 3,26 24,37 45,25zm53 -82c6,41 -17,89 -50,108 -33,19 -64,2 -69,-39 -6,-41 16,-89 49,-108 33,-19 65,-1 70,39z"/>
   <path class="fil28" d="M613 1380c21,-13 36,-44 32,-70 -3,-26 -23,-37 -45,-25 -21,12 -36,43 -32,69 4,27 24,38 45,26zm53 -82c6,40 -16,89 -50,108 -32,19 -64,1 -69,-39 -6,-41 17,-89 49,-108 34,-19 65,-2 70,39z"/>
   <path class="fil29 str0" d="M3251 396c11,-6 20,-17 26,-28 6,-12 10,-26 10,-39 0,-3 -1,-6 -1,-8l0 0 0 -1c-1,-10 -5,-19 -11,-25 -6,-6 -14,-9 -23,-9 -6,0 -13,2 -19,5l0 0 0 0c-11,7 -20,17 -26,28 -6,12 -10,26 -10,39 0,3 1,6 1,9l0 0 0 0c1,10 5,19 11,25 6,6 14,10 22,10 7,0 14,-2 20,-6l-5 -10c-6,3 -10,5 -15,5 -5,0 -10,-3 -14,-7 -4,-4 -7,-10 -8,-19l0 0c0,-2 -1,-5 -1,-7 0,-11 4,-23 9,-33 5,-11 13,-19 21,-24l-3 -5 3 5c5,-3 10,-4 14,-4 6,0 11,2 15,6 4,4 7,10 8,19l6 -1 -6 1c1,2 1,5 1,7 0,11 -3,23 -9,34 -5,10 -13,18 -21,23l5 10zm51 -87l-6 1c1,4 1,8 1,12 0,18 -5,36 -13,53 -9,16 -21,30 -35,38 -8,4 -16,6 -23,6 -10,0 -18,-3 -25,-10 -6,-7 -11,-18 -13,-32l0 0c-1,-3 -1,-7 -1,-11 0,-18 5,-37 13,-53 9,-16 21,-30 35,-38l0 0c8,-5 16,-7 23,-7 10,0 18,4 25,11 6,7 11,17 13,31l6 -1 5 -1c-2,-15 -8,-28 -16,-37 -9,-9 -20,-14 -33,-14 -9,0 -19,3 -29,9l0 0c-16,9 -29,24 -38,42 -10,18 -15,38 -15,58 0,4 0,9 1,13l0 0 0 0c2,16 8,28 16,37 9,9 20,14 33,14 9,0 19,-2 29,-8 16,-9 29,-24 38,-42 10,-18 15,-38 15,-58 0,-5 0,-9 -1,-14l-5 1z"/>
   <path class="fil27" d="M1020 935c-8,5 -14,12 -17,18 -4,7 -6,13 -10,17 -2,3 -5,6 -9,8 -6,4 -10,4 -14,2 -4,-1 -8,-4 -13,-4 -4,-1 -9,1 -14,4 -2,1 -4,4 -3,6 0,3 2,4 4,3 6,-4 10,-3 14,-2 4,1 8,4 14,5 3,0 8,-1 13,-4 9,-5 14,-12 17,-18 4,-7 6,-13 10,-17 2,-3 5,-6 9,-8 6,-4 10,-4 14,-2 4,1 8,4 14,4 3,1 8,0 13,-3 9,-5 14,-12 17,-19 4,-6 6,-12 10,-17 2,-3 5,-5 9,-8 6,-3 10,-3 14,-2 4,1 8,4 14,5 3,0 8,-1 13,-4 9,-5 14,-12 17,-18 4,-7 6,-12 10,-17 2,-3 5,-6 9,-8 2,-2 4,-5 3,-7 0,-3 -2,-4 -4,-3 -9,5 -14,12 -17,18 -4,7 -6,13 -10,17 -2,3 -5,6 -9,9 -6,3 -10,3 -14,2 -4,-2 -8,-5 -13,-5 -4,0 -9,1 -14,4 -8,4 -14,11 -17,18 -4,6 -6,12 -10,17 -2,3 -5,6 -9,8 -6,4 -10,3 -14,2 -4,-1 -8,-4 -13,-5 -4,0 -9,1 -14,4z"/>
   <path class="fil28" d="M2231 342c-19,11 -31,27 -39,42 -8,15 -14,29 -22,39 -5,7 -12,14 -21,20 -15,8 -24,7 -33,4 -9,-3 -18,-10 -31,-11 -9,0 -20,2 -32,9 -5,3 -9,10 -8,16 1,6 6,9 11,6 14,-8 23,-7 32,-5 9,4 18,10 32,11 8,1 19,-1 31,-8 20,-12 32,-27 40,-43 8,-15 14,-28 22,-39 5,-7 11,-13 21,-19 15,-8 23,-8 33,-5 9,3 18,10 31,11 9,1 19,-1 31,-8 20,-12 32,-28 40,-43 9,-15 14,-28 22,-39 6,-7 12,-13 22,-19 14,-8 23,-8 32,-5 9,3 18,10 32,11 8,1 18,-1 30,-8 20,-12 32,-28 41,-43 8,-15 14,-28 21,-39 6,-7 12,-13 22,-19 5,-3 8,-10 7,-16 0,-6 -5,-9 -10,-6 -19,11 -31,27 -39,42 -9,15 -14,29 -22,39 -5,7 -12,14 -22,20 -14,8 -23,7 -32,4 -9,-3 -18,-10 -32,-11 -8,0 -19,2 -31,9 -19,11 -31,27 -39,42 -9,15 -15,29 -23,39 -5,7 -11,14 -21,20 -15,8 -23,7 -32,4 -9,-3 -18,-10 -32,-11 -9,0 -19,2 -32,9z"/>
  </g>
 </g>
</svg>
