<?xml version="1.0" encoding="UTF-8"?>
<!DOCTYPE svg PUBLIC "-//W3C//DTD SVG 1.1//EN" "http://www.w3.org/Graphics/SVG/1.1/DTD/svg11.dtd">
<!-- Creator: CorelDRAW X7 -->
<svg xmlns="http://www.w3.org/2000/svg" xml:space="preserve" width="4.49999in" height="3.33333in" version="1.1" style="shape-rendering:geometricPrecision; text-rendering:geometricPrecision; image-rendering:optimizeQuality; fill-rule:evenodd; clip-rule:evenodd"
viewBox="0 0 4500 3333"
 xmlns:xlink="http://www.w3.org/1999/xlink">
 <defs>
  <style type="text/css">
   <![CDATA[
    .fil35 {fill:#FEFEFE;fill-rule:nonzero}
    .fil23 {fill:#E6E7E8;fill-rule:nonzero}
    .fil14 {fill:#D2D3D5;fill-rule:nonzero}
    .fil16 {fill:#B1B3B5;fill-rule:nonzero}
    .fil7 {fill:#A3A5A8;fill-rule:nonzero}
    .fil6 {fill:#989A9C;fill-rule:nonzero}
    .fil11 {fill:#848688;fill-rule:nonzero}
    .fil18 {fill:#828486;fill-rule:nonzero}
    .fil5 {fill:#7F8083;fill-rule:nonzero}
    .fil4 {fill:#626365;fill-rule:nonzero}
    .fil41 {fill:#C2B6AB;fill-rule:nonzero}
    .fil2 {fill:#FAB88D;fill-rule:nonzero}
    .fil22 {fill:#FAB16F;fill-rule:nonzero}
    .fil28 {fill:#ECA465;fill-rule:nonzero}
    .fil36 {fill:#CE8E6F;fill-rule:nonzero}
    .fil32 {fill:#DD9874;fill-rule:nonzero}
    .fil21 {fill:#F9A661;fill-rule:nonzero}
    .fil38 {fill:#F7A28D;fill-rule:nonzero}
    .fil27 {fill:#E79657;fill-rule:nonzero}
    .fil8 {fill:#F79633;fill-rule:nonzero}
    .fil19 {fill:#D6814E;fill-rule:nonzero}
    .fil24 {fill:#754A31;fill-rule:nonzero}
    .fil20 {fill:#C47344;fill-rule:nonzero}
    .fil25 {fill:#CC7648;fill-rule:nonzero}
    .fil26 {fill:#BC6A3F;fill-rule:nonzero}
    .fil33 {fill:#F26B35;fill-rule:nonzero}
    .fil3 {fill:#F16136;fill-rule:nonzero}
    .fil39 {fill:#EF5041;fill-rule:nonzero}
    .fil40 {fill:#EE403B;fill-rule:nonzero}
    .fil13 {fill:#AE3531;fill-rule:nonzero}
    .fil29 {fill:#94302C;fill-rule:nonzero}
    .fil17 {fill:#E5383B;fill-rule:nonzero}
    .fil34 {fill:#B63839;fill-rule:nonzero}
    .fil30 {fill:#803434;fill-rule:nonzero}
    .fil31 {fill:#3B2724;fill-rule:nonzero}
    .fil1 {fill:#29201E;fill-rule:nonzero}
    .fil9 {fill:#37353B;fill-rule:nonzero}
    .fil10 {fill:#2C2A2D;fill-rule:nonzero}
    .fil15 {fill:#2A282B;fill-rule:nonzero}
    .fil12 {fill:#3B2D2E;fill-rule:nonzero}
    .fil37 {fill:#302A30;fill-rule:nonzero}
    .fil0 {fill:#A9ABAE;fill-rule:nonzero;fill-opacity:0.149020}
   ]]>
  </style>
 </defs>
 <g id="Layer_x0020_1">
  <metadata id="CorelCorpID_0Corel-Layer"/>
  <g id="_934055696">
   <path class="fil0" d="M2676 3054c0,38 -157,68 -352,68 -194,0 -351,-30 -351,-68 0,-37 157,-67 351,-67 195,0 352,30 352,67z"/>
   <path class="fil0" d="M4111 3054c0,38 -157,68 -352,68 -194,0 -352,-30 -352,-68 0,-37 158,-67 352,-67 195,0 352,30 352,67z"/>
   <path class="fil1" d="M2610 2034c7,32 17,65 -15,78 -19,7 -119,25 -155,24 -26,-1 -57,-1 -60,-12 -3,-11 6,-35 21,-37 37,-3 74,-9 105,-48 10,-13 108,-16 104,-5z"/>
   <path class="fil2" d="M2719 1278c0,0 249,-94 276,-116 31,-26 104,-130 104,-130l-50 -30 -93 116 -247 124 10 36z"/>
   <path class="fil3" d="M3008 1029c0,0 78,-172 83,-186 20,-52 91,14 82,49 -5,18 -83,180 -83,180l-82 -43z"/>
   <path class="fil2" d="M2689 1317c22,-6 30,-39 30,-39l-10 -36c0,0 -46,-2 -56,13 -6,11 14,68 36,62z"/>
   <polygon class="fil4" points="1752,2630 1873,2630 1873,1772 1752,1772 "/>
   <polygon class="fil5" points="1826,2349 1946,2349 1946,147 1826,147 "/>
   <polygon class="fil5" points="2022,2349 2052,2349 2052,188 2022,188 "/>
   <polygon class="fil6" points="1806,2756 1966,2756 1966,2338 1806,2338 "/>
   <path class="fil7" d="M1853 2596c100,0 120,160 0,160 -120,0 -1221,0 -1221,0l0 -160c0,0 1136,0 1221,0z"/>
   <polygon class="fil7" points="1806,252 2059,252 2059,147 1806,147 "/>
   <path class="fil8" d="M4403 2218c0,53 -27,96 -60,96 -34,0 -61,-43 -61,-96 0,-53 27,-96 61,-96 33,0 60,43 60,96z"/>
   <polygon class="fil9" points="4233,2338 4343,2338 4343,2095 4233,2095 "/>
   <path class="fil9" d="M2356 1638c-35,-164 -183,-135 -183,-135l-33 736 368 99c0,0 -117,-534 -152,-700z"/>
   <path class="fil9" d="M2604 1501c35,-60 -31,-206 -61,-170 -31,36 -262,305 -262,305l40 357c0,0 248,-431 283,-492z"/>
   <path class="fil10" d="M3335 956c15,-68 160,-168 160,-84 0,47 -72,874 -72,874l-220 -76c0,0 117,-646 132,-714z"/>
   <path class="fil10" d="M2968 1574c-68,13 -153,129 -70,131 47,2 529,-8 529,-8l-5 -190c0,0 -385,54 -454,67z"/>
   <path class="fil9" d="M2943 1702c-69,11 -162,99 -79,104 10,0 -334,553 -258,555 279,11 1273,-518 1273,-518l-4 -240c0,0 -863,88 -932,99z"/>
   <path class="fil11" d="M2743 2444l1233 0 -135 -1184 -377 8c0,0 -50,464 -74,466 -168,16 -287,29 -329,29 -105,0 -318,425 -318,425l0 256z"/>
   <polygon class="fil11" points="2116,2338 3349,2338 3349,2140 2116,2140 "/>
   <path class="fil12" d="M4063 1247c-35,-164 -222,-133 -222,-133l129 832 246 0c0,0 -117,-534 -153,-699z"/>
   <path class="fil7" d="M3668 420c19,93 255,1585 255,1585l140 -29c0,0 -274,-1606 -296,-1706 -21,-100 -62,-123 -120,-123l-914 0c-135,0 -217,70 -248,197 -31,127 -426,1450 -426,1450l0 487 141 8 0 -453c0,0 339,-1230 366,-1348 26,-118 97,-183 213,-183l786 0c50,0 85,22 103,115z"/>
   <polygon class="fil9" points="2733,2756 4321,2756 4321,2619 2733,2619 "/>
   <path class="fil13" d="M4163 1864c-82,0 -322,0 -510,0 -188,0 -346,212 -346,212 0,0 -18,0 -135,0 -117,0 -299,164 -299,164l-814 0c0,0 -113,29 -113,129 0,99 0,277 0,277 0,0 96,-277 412,-266 316,12 375,238 375,238l1588 0c0,0 -47,-461 -47,-580 0,-119 -29,-174 -111,-174z"/>
   <path class="fil10" d="M2656 2756c0,165 -133,298 -298,298 -165,0 -299,-133 -299,-298 0,-165 134,-299 299,-299 165,0 298,134 298,299z"/>
   <path class="fil14" d="M2543 2756c0,102 -83,185 -185,185 -102,0 -185,-83 -185,-185 0,-102 83,-185 185,-185 102,0 185,83 185,185z"/>
   <path class="fil7" d="M2395 2756c0,20 -17,37 -37,37 -21,0 -37,-17 -37,-37 0,-21 16,-37 37,-37 20,0 37,16 37,37z"/>
   <path class="fil15" d="M2357 2941c0,0 0,0 0,0 0,0 0,0 0,0zm0 0c0,0 0,0 0,0 0,0 0,0 0,0zm0 0c0,0 0,0 0,0 0,0 0,0 0,0zm-1 0c0,0 0,0 0,0 0,0 0,0 0,0zm187 -186c0,0 0,0 0,0 0,0 0,0 0,0zm0 0c0,0 0,0 0,0 0,0 0,0 0,0zm0 0c0,0 0,0 0,0 0,0 0,0 0,0zm0 -1c0,0 0,0 0,0 0,0 0,0 0,0zm0 0l0 0 0 0z"/>
   <path class="fil16" d="M2358 2941l0 0c0,0 0,0 -1,0 0,0 0,0 0,0 0,0 0,0 0,0 0,0 0,0 0,0 0,0 0,0 0,0 0,0 0,0 0,0 0,0 -1,0 -1,0 0,0 0,0 0,0 -61,-1 -114,-31 -148,-77 33,30 77,48 124,48 102,0 185,-83 185,-185 0,-40 -13,-78 -35,-108 37,33 60,81 61,135l0 0c0,0 0,0 0,0 0,0 0,0 0,0 0,0 0,1 0,1 0,0 0,0 0,0 0,0 0,0 0,0 0,0 0,0 0,0 0,0 0,0 0,0 0,0 0,0 0,0 0,0 0,1 0,1 0,102 -83,185 -185,185z"/>
   <path class="fil17" d="M2353 2338c-233,0 -422,189 -422,422l73 0c0,-193 156,-349 349,-349 193,0 350,156 350,349l73 0c0,-233 -189,-422 -423,-422z"/>
   <path class="fil17" d="M3793 2338c-233,0 -422,189 -422,422l845 0c0,-233 -189,-422 -423,-422z"/>
   <path class="fil10" d="M4096 2756c0,165 -133,298 -298,298 -165,0 -299,-133 -299,-298 0,-165 134,-299 299,-299 165,0 298,134 298,299z"/>
   <path class="fil14" d="M3983 2756c0,102 -83,185 -185,185 -102,0 -185,-83 -185,-185 0,-102 83,-185 185,-185 102,0 185,83 185,185z"/>
   <path class="fil7" d="M3835 2756c0,20 -17,37 -37,37 -21,0 -37,-17 -37,-37 0,-21 16,-37 37,-37 20,0 37,16 37,37z"/>
   <g>
    <path class="fil15" d="M3797 2941c0,0 0,0 0,0 0,0 0,0 0,0zm0 0c0,0 0,0 0,0 0,0 0,0 0,0zm0 0c0,0 0,0 0,0 0,0 0,0 0,0zm-1 0c0,0 0,0 0,0 0,0 0,0 0,0zm0 0l0 0 0 0zm-1 0l1 0zm-1 0l0 0zm188 -186c0,0 0,0 0,0 0,0 0,0 0,0zm0 0c0,0 0,0 0,0 0,0 0,0 0,0zm0 0c0,0 0,0 0,0 0,0 0,0 0,0zm0 -1c0,0 0,0 0,0 0,0 0,0 0,0zm0 0l0 0 0 0z"/>
   </g>
   <path class="fil16" d="M3798 2941l0 0c0,0 0,0 -1,0 0,0 0,0 0,0 0,0 0,0 0,0 0,0 0,0 0,0 0,0 0,0 0,0 0,0 0,0 0,0 0,0 -1,0 -1,0 0,0 0,0 0,0 0,0 0,0 0,0l0 0c-1,0 -1,0 -1,0l0 0c0,0 0,0 0,0l0 0c-60,-1 -114,-31 -147,-77 33,30 76,48 124,48 102,0 185,-83 185,-185 0,-40 -13,-78 -35,-108 37,33 60,81 61,135l0 0c0,0 0,0 0,0 0,0 0,0 0,0 0,0 0,1 0,1 0,0 0,0 0,0 0,0 0,0 0,0 0,0 0,0 0,0 0,0 0,0 0,0 0,0 0,0 0,0 0,0 0,1 0,1 0,102 -83,185 -185,185z"/>
   <path class="fil18" d="M1895 2677c0,21 -17,38 -38,38 -22,0 -39,-17 -39,-38 0,-22 17,-39 39,-39 21,0 38,17 38,39z"/>
   <polygon class="fil19" points="1371,1914 1731,1914 1731,1233 1371,1233 "/>
   <polygon class="fil20" points="1483,1437 1596,1437 1596,1233 1483,1233 "/>
   <polygon class="fil21" points="708,1914 1371,1914 1371,1233 708,1233 "/>
   <polygon class="fil22" points="734,1887 734,1319 911,1370 942,1260 1345,1260 "/>
   <polygon class="fil23" points="1496,1430 1606,1430 1606,1233 1496,1233 "/>
   <polygon class="fil24" points="1079,1734 1323,1734 1323,1702 1079,1702 "/>
   <polygon class="fil24" points="1158,1796 1323,1796 1323,1763 1158,1763 "/>
   <path class="fil24" d="M1315 1865l0 -8 -51 0 0 -34 44 0 0 42 7 0 0 -8 0 8 8 0 0 -50c0,-2 -1,-4 -2,-6 -2,-1 -4,-2 -6,-2l-58 0c-2,0 -4,1 -6,2 -1,2 -2,4 -2,6l0 50c0,2 1,4 2,5 2,2 4,3 6,3l58 0c2,0 4,-1 6,-3 1,-1 2,-3 2,-5l-8 0z"/>
   <path class="fil24" d="M1225 1865l0 -8 -51 0 0 -34 43 0 0 42 8 0 0 -8 0 8 8 0 0 -50c0,-2 -1,-4 -2,-6 -2,-1 -4,-2 -6,-2l-58 0c-2,0 -4,1 -6,2 -1,2 -2,4 -2,6l0 50c0,2 1,4 2,5 2,2 4,3 6,3l58 0c2,0 4,-1 6,-3 1,-1 2,-3 2,-5l-8 0z"/>
   <polygon class="fil25" points="1371,2595 1731,2595 1731,1914 1371,1914 "/>
   <polygon class="fil26" points="1483,2118 1596,2118 1596,1914 1483,1914 "/>
   <polygon class="fil27" points="708,2595 1371,2595 1371,1914 708,1914 "/>
   <polygon class="fil28" points="734,2568 734,1941 1345,1941 "/>
   <polygon class="fil23" points="1496,2111 1606,2111 1606,1914 1496,1914 "/>
   <polygon class="fil24" points="1079,2415 1323,2415 1323,2383 1079,2383 "/>
   <polygon class="fil24" points="1158,2477 1323,2477 1323,2444 1158,2444 "/>
   <path class="fil24" d="M1315 2546l0 -8 -51 0 0 -34 44 0 0 42 7 0 0 -8 0 8 8 0 0 -50c0,-2 -1,-4 -2,-6 -2,-1 -4,-2 -6,-2l-58 0c-2,0 -4,1 -6,2 -1,2 -2,4 -2,6l0 50c0,2 1,4 2,5 2,2 4,3 6,3l58 0c2,0 4,-1 6,-3 1,-1 2,-3 2,-5l-8 0z"/>
   <path class="fil24" d="M1225 2546l0 -8 -51 0 0 -34 43 0 0 42 8 0 0 -8 0 8 8 0 0 -50c0,-2 -1,-4 -2,-6 -2,-1 -4,-2 -6,-2l-58 0c-2,0 -4,1 -6,2 -1,2 -2,4 -2,6l0 50c0,2 1,4 2,5 2,2 4,3 6,3l58 0c2,0 4,-1 6,-3 1,-1 2,-3 2,-5l-8 0z"/>
   <path class="fil29" d="M3039 485c0,0 -28,-19 -42,-31 -42,-27 -99,-16 -99,-16 0,0 -1,17 43,40 42,20 98,7 98,7z"/>
   <path class="fil30" d="M3081 1409c0,0 191,-219 231,-56 31,124 -129,215 -129,215l-415 91 -173 393 -105 -8c0,0 121,-432 148,-470 28,-39 443,-165 443,-165z"/>
   <path class="fil31" d="M2668 2081c5,32 12,66 -21,76 -19,6 -118,21 -153,14 -17,-3 -61,-7 -62,-19 -2,-11 9,-34 23,-34 38,-1 75,-4 109,-40 11,-13 109,-7 104,3z"/>
   <path class="fil2" d="M3094 897c34,0 128,-82 128,-82 0,0 -18,-57 15,-107 3,-5 -20,-3 -49,1 -2,1 -4,1 -6,2l-1 0c-11,2 -23,4 -34,8l0 0c-24,6 -42,15 -39,23 1,2 3,4 4,7l0 1c12,26 23,47 13,59 -3,3 -6,5 -11,6 -11,3 -54,82 -20,82z"/>
   <path class="fil32" d="M3109 742c1,2 2,4 3,7l0 1c12,26 23,47 13,59 19,-8 36,-22 48,-39 13,-18 15,-39 15,-61 -2,1 -4,1 -6,2l-1 0c-11,2 -23,5 -34,8l0 0c-24,6 -42,15 -38,23z"/>
   <path class="fil33" d="M3325 1343l-283 0c0,0 10,-122 3,-240 0,-280 69,-288 69,-288 0,0 5,20 41,20 49,0 67,-20 67,-20 0,0 46,16 79,42 51,40 24,486 24,486z"/>
   <path class="fil34" d="M3045 1103c0,-39 1,-72 4,-101l131 0 2 278 146 -2c-1,38 -3,65 -3,65l-283 0c0,0 10,-122 3,-240z"/>
   <path class="fil2" d="M3010 624c5,127 56,151 114,151 52,0 139,-25 139,-162 0,-141 28,-245 -106,-245 -174,0 -153,115 -147,256z"/>
   <path class="fil35" d="M3072 673c0,0 9,24 39,26 22,2 34,-27 34,-27l-73 1z"/>
   <path class="fil32" d="M3072 673c5,11 13,36 40,34 22,-1 31,-24 33,-35 0,0 -8,27 -36,27 -21,1 -37,-26 -37,-26z"/>
   <path class="fil36" d="M3117 634c-13,0 -20,-4 -20,-7 0,-2 5,-2 14,-2 2,0 4,0 6,0 13,0 14,-12 14,-12 0,0 -1,21 -14,21z"/>
   <path class="fil37" d="M3030 572c0,7 5,12 12,12 7,0 12,-5 12,-12 0,-7 -5,-13 -12,-13 -7,0 -12,6 -12,13z"/>
   <path class="fil35" d="M3035 567c0,3 2,5 5,5 2,0 4,-2 4,-5 0,-2 -2,-4 -4,-4 -3,0 -5,2 -5,4z"/>
   <path class="fil38" d="M3014 606c0,6 11,10 25,10 14,0 25,-4 25,-10 0,-6 -11,-10 -25,-10 -14,0 -25,4 -25,10z"/>
   <path class="fil37" d="M3194 572c0,7 -6,12 -12,12 -7,0 -13,-5 -13,-12 0,-7 6,-13 13,-13 6,0 12,6 12,13z"/>
   <path class="fil35" d="M3189 567c0,3 -2,5 -5,5 -2,0 -4,-2 -4,-5 0,-2 2,-4 4,-4 3,0 5,2 5,4z"/>
   <path class="fil37" d="M3203 520c-4,-3 -9,-4 -14,-6 -5,-1 -10,-3 -16,-2 -2,1 -5,0 -7,2 -2,1 -4,2 -6,4 -4,2 3,8 5,8 3,-1 6,-2 10,-2 4,-1 8,-1 13,-1 4,1 8,1 12,3 4,1 8,-4 3,-6z"/>
   <path class="fil37" d="M3023 520c4,-3 9,-4 14,-6 5,-1 11,-3 16,-2 3,1 5,0 7,2 2,1 4,2 6,4 4,2 -3,8 -5,8 -3,-1 -6,-2 -10,-2 -3,-1 -8,-1 -12,-1 -4,1 -9,1 -13,3 -4,1 -7,-4 -3,-6z"/>
   <path class="fil38" d="M3210 606c0,6 -11,10 -25,10 -14,0 -25,-4 -25,-10 0,-6 11,-10 25,-10 14,0 25,4 25,10z"/>
   <path class="fil37" d="M3006 543c0,0 -21,-87 0,-146 21,-59 76,-75 125,-77 49,-2 121,1 134,35 75,-16 43,234 43,234 0,0 -34,-31 -73,-42 35,-91 -62,-99 -157,-93 -68,4 -72,89 -72,89z"/>
   <path class="fil2" d="M3313 606c-1,22 -20,60 -51,51 -23,-7 -35,-19 -35,-43 0,-24 24,2 33,-20 13,-33 53,-21 53,12z"/>
   <path class="fil37" d="M3265 596c6,-13 21,-37 43,-7 3,-31 -13,-56 -17,-79 -12,-87 -14,-6 -56,37 38,21 6,64 6,64l13 13c0,0 10,-17 11,-28z"/>
   <path class="fil39" d="M3046 476c93,3 274,2 274,-5 0,-120 -61,-162 -165,-162 -97,0 -156,16 -163,137 0,8 23,14 54,30z"/>
   <path class="fil40" d="M3010 470c39,30 121,31 149,26 40,-7 46,-19 46,-19 0,0 -110,-28 -180,-38 -88,-13 -127,-1 -127,-1 0,0 68,-2 112,32z"/>
   <path class="fil34" d="M3148 1015c-1,13 20,34 19,11 44,-217 98,-192 98,-192l-28 -13c0,0 -72,31 -89,194z"/>
   <path class="fil34" d="M3050 1003c-1,12 20,33 18,11 20,-176 46,-199 46,-199 0,0 -48,24 -64,188z"/>
   <path class="fil2" d="M2695 1274c9,-6 0,-17 -8,-13 -10,5 -27,13 -39,21 -11,6 0,22 10,16 10,-6 26,-17 37,-24z"/>
   <path class="fil2" d="M2701 1292c8,-6 -1,-18 -8,-14 -9,5 -24,12 -36,19 -9,5 1,22 11,16 9,-5 23,-15 33,-21z"/>
   <path class="fil2" d="M2706 1307c7,-5 -1,-15 -7,-12 -8,4 -22,11 -32,17 -8,5 1,19 9,14 8,-5 21,-14 30,-19z"/>
   <path class="fil2" d="M2682 1261c9,-6 0,-17 -8,-14 -9,5 -24,12 -36,19 -9,6 2,22 11,17 9,-6 23,-16 33,-22z"/>
   <path class="fil9" d="M2793 1397c-10,11 -27,12 -38,2l-194 -169c-11,-10 -12,-27 -2,-39 10,-11 27,-12 38,-2l194 169c11,10 12,27 2,39z"/>
   <polygon class="fil9" points="2580,1453 2531,1410 2647,1277 2696,1320 "/>
   <path class="fil2" d="M2708 1367c-8,7 3,17 10,12 9,-7 25,-18 36,-28 9,-7 -4,-22 -13,-14 -9,8 -23,21 -33,30z"/>
   <path class="fil2" d="M2700 1350c-8,7 3,17 10,12 8,-6 22,-15 32,-24 8,-7 -5,-22 -13,-15 -8,7 -20,20 -29,27z"/>
   <path class="fil2" d="M2693 1336c-7,6 2,15 8,11 7,-6 20,-14 29,-22 7,-6 -4,-19 -12,-13 -7,7 -18,17 -25,24z"/>
   <path class="fil2" d="M2723 1378c-7,7 4,17 10,12 8,-6 22,-16 33,-25 8,-7 -6,-21 -14,-14 -8,7 -20,19 -29,27z"/>
   <path class="fil2" d="M2800 1353c0,0 237,-118 257,-135 53,-45 208,-236 208,-236l-79 -14 -166 208 -241 135 -61 1 42 58 40 -17z"/>
   <path class="fil3" d="M3122 1036c0,0 94,-150 102,-163 30,-49 96,-7 83,37 -5,18 -100,189 -100,189l-85 -63z"/>
   <path class="fil34" d="M3021 1453l21 -110c11,-89 267,-76 283,0 17,76 0,204 -90,231 -111,33 -243,72 -407,124l-147 380 -126 0c0,0 112,-421 135,-477 24,-56 331,-148 331,-148z"/>
   <path class="fil0" d="M836 3124c0,21 -154,38 -343,38 -190,0 -343,-17 -343,-38 0,-21 153,-38 343,-38 189,0 343,17 343,38z"/>
   <path class="fil0" d="M469 3165c0,12 -83,22 -186,22 -103,0 -186,-10 -186,-22 0,-12 83,-22 186,-22 103,0 186,10 186,22z"/>
   <path class="fil2" d="M780 789c0,0 82,275 68,302 -26,52 -124,141 -124,141l-67 -52 106 -116 -22 -258 39 -17z"/>
   <path class="fil3" d="M675 1141c-68,59 -154,150 -165,163 -43,48 61,86 92,59 16,-15 74,-72 147,-137l-74 -85z"/>
   <path class="fil2" d="M790 713c5,26 -10,76 -10,76l-39 17c0,0 -26,-40 -30,-61 -3,-13 74,-57 79,-32z"/>
   <polygon class="fil19" points="911,1370 630,1289 812,654 1093,734 "/>
   <polygon class="fil41" points="988,704 900,679 900,679 988,704 "/>
   <polygon class="fil20" points="933,895 845,869 900,679 988,704 "/>
   <polygon class="fil21" points="630,1289 111,1140 294,505 812,654 "/>
   <path class="fil22" d="M138 1121l169 -586 478 138 -165 114c-26,-21 -65,-33 -124,-33 -130,0 -128,84 -124,205l-234 162z"/>
   <polygon class="fil23" points="943,890 857,865 910,682 995,706 "/>
   <polygon class="fil24" points="640,1111 449,1056 458,1025 649,1080 "/>
   <polygon class="fil24" points="624,1168 494,1131 503,1101 633,1138 "/>
   <path class="fil24" d="M599 1231l2 -7 -39 -11 9 -33 33 9 -12 40 7 2 2 -7 -2 7 7 2 13 -47c1,-2 0,-4 -1,-5 0,-2 -2,-3 -4,-3l-46 -14c-3,-1 -7,1 -8,5l-13 47c-2,3 1,7 4,8l46 13c2,1 4,1 5,0 2,-1 3,-3 4,-4l-7 -2z"/>
   <path class="fil24" d="M529 1211l1 -7 -39 -11 10 -34 32 10 -11 40 7 2 1 -7 -1 7 6 1 14 -46c0,-2 0,-4 -1,-5 -1,-2 -2,-3 -4,-4l-46 -13c-4,-1 -7,1 -9,5l-13 46c-1,4 1,8 5,9l46 13c1,1 3,0 5,0 2,-1 3,-3 3,-5l-6 -1z"/>
   <path class="fil29" d="M631 888c0,0 31,-21 48,-35 47,-31 114,-18 114,-18 0,0 0,19 -50,45 -48,24 -112,8 -112,8z"/>
   <path class="fil1" d="M506 3031c-4,37 -9,76 29,86 22,6 139,11 180,4 29,-5 65,-10 66,-23 2,-13 -12,-39 -29,-38 -43,2 -86,0 -127,-39 -14,-14 -125,-2 -119,10z"/>
   <path class="fil30" d="M625 1992c0,0 -261,-295 -308,-108 -35,142 148,246 148,246l60 380 -49 522 149 -11 50 -525 -50 -504z"/>
   <path class="fil31" d="M158 3015c-11,35 -32,85 3,103 20,10 128,47 169,46 21,0 71,4 75,-8 5,-13 -3,-41 -20,-44 -42,-8 -83,-19 -114,-67 -11,-17 -116,-43 -113,-30z"/>
   <path class="fil34" d="M534 2177c0,0 114,-109 95,-260 -13,-101 -304,-91 -323,-4 -19,87 30,266 30,266l1 390 -198 446 154 32 201 -452 40 -418z"/>
   <path class="fil2" d="M568 1361c-40,0 -147,-94 -147,-94 0,0 21,-65 -18,-122 -4,-6 24,-5 56,1 3,0 5,0 8,1l0 0c13,3 27,6 39,9l1 0c27,8 48,17 44,27 -1,2 -3,5 -4,8l0 1c-14,30 -26,54 -15,68 3,3 7,5 12,7 14,3 63,94 24,94z"/>
   <path class="fil32" d="M550 1183c-1,2 -2,5 -3,8l0 1c-14,30 -26,54 -15,68 -22,-9 -41,-26 -55,-45 -15,-21 -17,-45 -18,-69 3,0 5,0 8,1l0 0c14,3 27,6 39,9l1 0c27,8 47,17 43,27z"/>
   <path class="fil33" d="M306 1913l323 4c0,0 -14,-184 -6,-320 0,-321 -79,-330 -79,-330 0,0 -5,23 -47,23 -55,0 -76,-23 -76,-23 0,0 -53,18 -91,48 -59,46 -24,598 -24,598z"/>
   <path class="fil34" d="M623 1597c0,-44 -1,-83 -4,-116l-150 0 0 362 -167 0c2,43 0,97 0,97l327 -10c0,0 -14,-197 -6,-333z"/>
   <path class="fil2" d="M664 1047c-6,146 -64,174 -131,174 -59,0 -159,-29 -159,-186 0,-161 -33,-281 122,-281 198,0 175,132 168,293z"/>
   <path class="fil35" d="M592 1104c0,0 -10,28 -44,30 -25,2 -40,-31 -40,-31l84 1z"/>
   <path class="fil32" d="M592 1104c-5,12 -14,41 -46,39 -24,-1 -35,-27 -38,-40 0,0 10,31 42,31 25,0 42,-30 42,-30z"/>
   <path class="fil36" d="M541 1059c-14,0 -16,-24 -16,-24 0,0 2,13 16,13 3,0 5,0 7,0 10,0 16,1 16,3 0,3 -9,8 -23,8z"/>
   <path class="fil37" d="M641 988c0,8 -6,14 -14,14 -8,0 -14,-6 -14,-14 0,-8 6,-14 14,-14 8,0 14,6 14,14z"/>
   <path class="fil35" d="M635 983c0,3 -2,5 -5,5 -3,0 -5,-2 -5,-5 0,-3 2,-6 5,-6 3,0 5,3 5,6z"/>
   <path class="fil38" d="M659 1027c0,6 -13,12 -28,12 -16,0 -29,-6 -29,-12 0,-6 13,-11 29,-11 15,0 28,5 28,11z"/>
   <path class="fil37" d="M453 988c0,8 6,14 14,14 7,0 14,-6 14,-14 0,-8 -7,-14 -14,-14 -8,0 -14,6 -14,14z"/>
   <path class="fil35" d="M459 983c0,3 2,5 5,5 3,0 5,-2 5,-5 0,-3 -2,-6 -5,-6 -3,0 -5,3 -5,6z"/>
   <path class="fil37" d="M442 928c4,-3 10,-5 16,-7 6,-1 12,-3 18,-2 3,1 6,1 9,2 2,2 4,3 7,5 4,2 -4,9 -6,9 -4,-1 -7,-2 -12,-2 -4,-2 -9,-1 -14,-1 -5,1 -10,1 -14,3 -5,2 -9,-4 -4,-7z"/>
   <path class="fil37" d="M649 928c-5,-3 -10,-5 -16,-7 -6,-1 -12,-3 -19,-2 -3,1 -6,1 -8,2 -2,2 -5,3 -7,5 -4,2 4,9 6,9 3,-1 7,-2 11,-2 5,-2 10,-1 15,-1 5,1 10,1 14,3 5,2 9,-4 4,-7z"/>
   <path class="fil38" d="M435 1027c0,6 12,12 28,12 16,0 29,-6 29,-12 0,-6 -13,-11 -29,-11 -16,0 -28,5 -28,11z"/>
   <path class="fil37" d="M668 954c0,0 25,-99 0,-167 -24,-68 -87,-86 -143,-88 -56,-2 -139,1 -154,40 -85,-18 -49,268 -49,268 0,0 39,-35 83,-48 -39,-104 72,-113 180,-107 79,5 83,102 83,102z"/>
   <path class="fil2" d="M317 1027c0,25 22,69 58,58 26,-7 40,-21 40,-49 0,-28 -27,3 -38,-23 -15,-38 -61,-23 -60,14z"/>
   <path class="fil37" d="M371 1016c-7,-16 -24,-42 -49,-9 -4,-35 15,-64 19,-90 14,-100 16,-7 64,42 -43,24 -6,73 -6,73l-15 15c0,0 -11,-19 -13,-31z"/>
   <path class="fil39" d="M623 878c-107,3 -315,2 -315,-5 0,-138 70,-186 189,-186 112,0 179,18 187,156 0,10 -26,17 -61,35z"/>
   <path class="fil40" d="M664 870c-46,36 -139,37 -171,31 -46,-8 -53,-22 -53,-22 0,0 126,-32 206,-44 101,-14 147,0 147,0 0,0 -79,-3 -129,35z"/>
   <path class="fil34" d="M505 1497c2,14 -23,38 -21,12 -51,-249 -113,-220 -113,-220l32 -15c0,0 83,35 102,223z"/>
   <path class="fil34" d="M618 1482c2,14 -23,39 -21,13 -23,-202 -53,-228 -53,-228 0,0 55,27 74,215z"/>
   <path class="fil2" d="M762 667c-3,12 -19,7 -18,-3 2,-13 4,-34 8,-51 2,-14 24,-8 22,5 -3,13 -9,34 -12,49z"/>
   <path class="fil2" d="M783 667c-3,11 -19,6 -18,-4 1,-11 3,-31 7,-46 2,-12 24,-7 22,5 -3,12 -8,31 -11,45z"/>
   <path class="fil2" d="M801 666c-3,10 -16,5 -15,-3 1,-10 3,-27 6,-40 2,-11 21,-7 18,4 -2,11 -6,28 -9,39z"/>
   <path class="fil2" d="M742 658c-3,12 -19,6 -17,-3 1,-12 3,-31 6,-46 3,-12 25,-7 22,5 -2,12 -8,31 -11,44z"/>
   <path class="fil2" d="M868 1358c0,0 -169,274 -225,296 -35,14 -256,-186 -256,-186l42 -71 207 175 214 -268 44 -30 24 79 -50 5z"/>
   <path class="fil3" d="M538 1490c0,0 -100,-136 -120,-157 -44,-46 -110,-6 -93,54 6,20 137,175 137,175l76 -72z"/>
   <path class="fil2" d="M944 1318c12,2 7,18 -3,17 -13,-1 -34,-3 -51,-6 -14,-2 -9,-24 4,-22 14,2 35,8 50,11z"/>
   <path class="fil2" d="M943 1297c11,2 6,18 -3,17 -12,-1 -31,-2 -46,-5 -13,-2 -8,-24 4,-22 12,2 32,7 45,10z"/>
   <path class="fil2" d="M942 1278c10,2 6,16 -3,16 -10,-2 -27,-3 -41,-5 -10,-2 -6,-21 4,-19 11,2 28,6 40,8z"/>
   <path class="fil2" d="M936 1337c11,3 6,19 -3,18 -12,-1 -31,-3 -46,-5 -13,-3 -8,-25 4,-23 12,3 31,7 45,10z"/>
  </g>
 </g>
</svg>
