<?xml version="1.0" encoding="UTF-8"?>
<!DOCTYPE svg PUBLIC "-//W3C//DTD SVG 1.1//EN" "http://www.w3.org/Graphics/SVG/1.1/DTD/svg11.dtd">
<!-- Creator: CorelDRAW X7 -->
<svg xmlns="http://www.w3.org/2000/svg" xml:space="preserve" width="0.599992in" height="0.599992in" version="1.1" style="shape-rendering:geometricPrecision; text-rendering:geometricPrecision; image-rendering:optimizeQuality; fill-rule:evenodd; clip-rule:evenodd"
viewBox="0 0 600 600"
 xmlns:xlink="http://www.w3.org/1999/xlink">
 <defs>
  <style type="text/css">
   <![CDATA[
    .fil0 {fill:#383E4F}
   ]]>
  </style>
 </defs>
 <g id="Layer_x0020_1">
  <metadata id="CorelCorpID_0Corel-Layer"/>
  <g id="_925155472">
   <path class="fil0" d="M267 271l58 0c1,2 3,2 3,5 0,10 1,31 -1,40 -5,2 -7,2 -13,2l0 115c0,3 -2,5 -5,5l-168 0c-10,0 -7,-12 -7,-26l0 -92c-1,-6 -2,-2 -5,-2 -5,0 -9,-3 -9,-8 0,-45 -6,-39 30,-39 12,0 24,0 36,0 -2,-6 -3,-6 -3,-14 0,-14 15,-27 32,-19 3,2 4,4 7,6 3,-5 4,-8 9,-13 14,-13 42,0 42,19 0,19 -4,12 -6,21zm-210 -35l0 196c0,6 4,21 8,21l76 0c2,0 4,-3 6,-4 2,-2 4,-3 7,-4 31,-12 49,8 52,8l176 0 0 -244c-4,-1 -6,-3 -10,-4 -5,-2 -9,-3 -14,-3l-265 0c-22,0 -36,13 -36,34z"/>
   <path class="fil0" d="M440 392c-11,0 -37,3 -37,-5l1 -6c8,-1 37,-1 44,0 1,5 3,11 -8,11zm-38 -27l0 -57c0,-2 3,-5 5,-5l50 0c4,0 6,8 9,14 2,7 20,47 20,50 0,3 -3,5 -6,5l-69 0c-4,0 -5,-1 -8,-2 0,-2 -1,-3 -1,-5zm-10 98l-179 0c1,4 3,6 5,11 3,8 2,12 2,20l177 0c0,-16 4,-27 12,-35 15,-16 22,-17 41,-17 9,0 12,4 17,4l53 0 0 -55c0,-8 -8,-22 -11,-29 -4,-10 -8,-19 -12,-28 -4,-10 -8,-19 -12,-28 -6,-13 -8,-25 -16,-25l-77 0 0 182z"/>
   <path class="fil0" d="M146 318l0 109 54 0 0 -109c-5,0 -5,-1 -8,-1l-11 1c-4,0 -5,-1 -8,-1l-12 1c-4,0 -5,-1 -8,-1 -3,0 -3,1 -7,1z"/>
   <path class="fil0" d="M250 320l0 107 53 0 0 -109 -24 0c-4,0 -6,-1 -8,-1l-14 1c-4,0 -7,-3 -7,2z"/>
   <path class="fil0" d="M366 100c-20,-11 -47,0 -57,18 -5,10 -2,10 -9,12 -38,10 -44,51 -30,51 6,0 6,-7 7,-12 1,-6 2,-9 5,-13 6,-8 12,-13 24,-15 16,-1 5,-5 17,-20 9,-12 25,-17 41,-8 20,10 4,-23 46,-30 16,-2 31,8 39,21 5,8 5,4 15,6 11,1 22,12 25,24 1,3 1,5 4,7 3,1 17,-1 28,12 13,15 4,28 14,28 11,0 5,-33 -15,-45 -9,-5 -13,-5 -17,-7 -7,-2 -5,-20 -30,-30 -4,-2 -6,-2 -11,-3 -11,-2 -2,-7 -22,-19 -26,-15 -59,-7 -74,23z"/>
   <path class="fil0" d="M432 489c0,-15 25,-17 25,1 0,10 -13,16 -21,8 -2,-1 -4,-6 -4,-9zm-28 -3c0,19 8,33 25,41 32,14 66,-19 53,-53 -5,-12 -19,-25 -35,-25l-6 0c-18,0 -37,19 -37,37z"/>
   <path class="fil0" d="M186 488c0,7 -5,14 -12,14 -11,0 -17,-13 -10,-21 3,-3 8,-5 13,-4 4,2 9,6 9,11zm-53 -1c0,20 8,31 25,40 29,14 67,-18 53,-53 -5,-12 -19,-25 -35,-25 -13,0 -22,2 -31,12 -6,5 -12,15 -12,26z"/>
   <polygon class="fil0" points="132,306 316,306 316,282 132,282 "/>
   <path class="fil0" d="M210 320l0 107 30 0 0 -109c-4,0 -6,-1 -8,-1l-14 1c-4,0 -8,-3 -8,2z"/>
   <path class="fil0" d="M138 90c-7,-1 -16,-6 -31,5 -9,6 -9,14 -12,16 -2,1 -11,2 -18,9 -8,9 -13,28 -3,28 13,0 1,-16 20,-24 4,-2 7,-2 12,-3 1,-5 2,-10 5,-13 6,-8 12,-7 19,-7 5,0 8,3 9,3 8,0 8,-8 11,-12 8,-11 28,-14 39,1 1,1 3,4 4,5 4,3 16,-1 22,12 3,6 1,9 7,11 7,1 17,2 21,15 2,7 -1,12 8,12 9,0 6,-22 -8,-32 -2,-1 -3,-2 -6,-3 -9,-5 -5,1 -11,-9 -1,-2 -2,-4 -4,-6 -8,-10 -18,-7 -24,-14 -11,-14 -34,-17 -49,-7 -5,4 -8,8 -11,13z"/>
   <path class="fil0" d="M492 491l0 5 38 0c16,0 13,-15 13,-27 0,-18 -9,-16 -25,-16 -14,0 -28,0 -41,0 1,5 15,12 15,38z"/>
   <path class="fil0" d="M414 361l59 0c-2,-6 -15,-33 -19,-42 -1,-3 -1,-5 -4,-5l-36 0 0 47z"/>
   <path class="fil0" d="M92 486c0,13 20,10 31,10 6,0 2,-7 4,-16 1,-3 1,-5 2,-7 1,-3 2,-4 3,-7l-40 0 0 20z"/>
   <path class="fil0" d="M229 271c13,0 33,-2 33,-14l0 -6c0,-6 -8,-13 -14,-13 -18,0 -16,19 -19,33z"/>
   <path class="fil0" d="M195 257c0,14 9,11 23,15 0,-6 -1,-10 -2,-15 -1,-3 -1,-5 -3,-6 -6,-7 -18,-3 -18,6z"/>
  </g>
 </g>
</svg>
