<?xml version="1.0" encoding="UTF-8"?>
<!DOCTYPE svg PUBLIC "-//W3C//DTD SVG 1.1//EN" "http://www.w3.org/Graphics/SVG/1.1/DTD/svg11.dtd">
<!-- Creator: CorelDRAW X7 -->
<svg xmlns="http://www.w3.org/2000/svg" xml:space="preserve" width="0.599992in" height="0.599992in" version="1.1" style="shape-rendering:geometricPrecision; text-rendering:geometricPrecision; image-rendering:optimizeQuality; fill-rule:evenodd; clip-rule:evenodd"
viewBox="0 0 600 600"
 xmlns:xlink="http://www.w3.org/1999/xlink">
 <defs>
  <style type="text/css">
   <![CDATA[
    .fil0 {fill:#383E4F}
   ]]>
  </style>
 </defs>
 <g id="Layer_x0020_1">
  <metadata id="CorelCorpID_0Corel-Layer"/>
  <g id="_911095984">
   <path class="fil0" d="M307 53l-15 0c-3,2 -24,1 -47,14 -13,7 -25,17 -34,28 -29,39 -20,64 -22,102 -3,3 -13,3 -20,16 -6,9 -4,23 -4,34 0,6 0,10 2,16 5,14 18,20 35,20 8,18 11,25 23,41 25,34 65,60 107,36 4,-2 7,-4 10,-6 6,-4 17,-14 21,-19 1,-1 1,-1 2,-2 8,-9 16,-20 21,-31 2,-3 2,-3 4,-5 4,-3 9,-7 13,-11 3,-5 3,-2 11,-5 8,-3 14,-8 18,-15 5,-8 3,-18 3,-29 0,-13 0,-25 -13,-35 -4,-2 -7,-3 -11,-5 -1,-18 1,-42 -2,-59 -5,-21 -15,-37 -27,-51 -7,-7 -18,-15 -27,-20 -6,-3 -13,-6 -21,-9 -4,-1 -9,-2 -13,-3 -3,0 -12,-1 -14,-2zm-95 216l4 -1c8,28 30,60 55,74 21,11 43,8 62,-5 7,-4 21,-17 25,-24 -11,3 -22,5 -34,6 -4,9 -14,8 -25,8 -7,0 -10,1 -15,-2 -8,-5 -8,-18 -1,-23 3,-3 7,-4 13,-4 16,0 19,-2 28,7 12,0 35,-7 46,-13 2,-1 3,-3 4,-7 3,-5 6,-11 7,-17 3,1 4,1 6,0 1,-5 1,-32 0,-41 0,-8 -9,-30 -15,-38 -2,-3 -4,-5 -8,-6 0,4 3,7 4,11 -6,-2 -13,-7 -23,-10 -5,-1 -10,-1 -15,-1 -10,0 -18,6 -45,4 -15,-1 -16,-3 -28,-6 -9,-2 -20,2 -27,6 -9,6 -18,19 -18,32l0 50z"/>
   <path class="fil0" d="M83 471l0 8c3,7 0,18 18,32 15,11 40,19 60,23 18,4 37,7 57,9 8,1 57,5 62,3 2,-1 15,1 21,1 6,0 18,-2 21,-1 5,2 52,-2 61,-3 34,-4 75,-10 105,-25 28,-14 25,-28 29,-36l0 -13c-1,-2 -3,-9 -4,-12 -3,-12 -7,-21 -13,-32 -6,-12 -10,-17 -18,-26 -3,-4 -4,-5 -7,-8 -22,-21 -55,-20 -82,-22 -5,-1 -9,-2 -13,-2 0,1 -1,4 -2,6 -1,2 -2,3 -3,5 -5,7 -9,13 -15,20l-14 16c0,1 -1,2 -1,3 -2,2 -3,2 -5,4l-16 18c0,1 -3,4 -4,5l-10 -39c7,-3 9,-13 9,-22l-38 0c0,10 2,18 9,22l-10 39c-1,-1 -7,-8 -8,-9l-8 -9c-2,-2 -3,-3 -5,-5l-15 -18c-7,-8 -22,-28 -24,-36 -23,4 -53,1 -77,13 -9,4 -20,12 -26,20 -2,2 -4,5 -6,8 -12,18 -18,30 -25,51 0,3 -2,10 -3,12z"/>
   <path class="fil0" d="M226 114c11,-8 17,-12 31,-17 33,-11 78,-9 108,10 3,2 5,4 8,5 -1,-2 -2,-3 -3,-4 -1,-1 -2,-3 -3,-4 -4,-4 -11,-10 -15,-13 -30,-20 -66,-22 -98,-4 -9,6 -24,18 -28,27z"/>
  </g>
 </g>
</svg>
