<?xml version="1.0" encoding="UTF-8"?>
<!DOCTYPE svg PUBLIC "-//W3C//DTD SVG 1.1//EN" "http://www.w3.org/Graphics/SVG/1.1/DTD/svg11.dtd">
<!-- Creator: CorelDRAW X7 -->
<svg xmlns="http://www.w3.org/2000/svg" xml:space="preserve" width="0.599992in" height="0.599992in" version="1.1" style="shape-rendering:geometricPrecision; text-rendering:geometricPrecision; image-rendering:optimizeQuality; fill-rule:evenodd; clip-rule:evenodd"
viewBox="0 0 600 600"
 xmlns:xlink="http://www.w3.org/1999/xlink">
 <defs>
  <style type="text/css">
   <![CDATA[
    .fil0 {fill:#383E4F}
   ]]>
  </style>
 </defs>
 <g id="Layer_x0020_1">
  <metadata id="CorelCorpID_0Corel-Layer"/>
  <g id="_744250656">
   <path class="fil0" d="M67 403l0 -46 28 0 0 46c-2,-2 -5,-7 -7,-9 -4,-5 -5,-8 -8,-9 -1,3 -4,6 -6,9l-5 6c-1,1 -2,2 -2,3zm-20 70l155 0 1 -126 -156 0 0 126z"/>
   <path class="fil0" d="M417 403l0 -46 28 0 0 46 -3 -4c-1,-2 -2,-3 -3,-5 -2,-2 -5,-7 -7,-9 -5,3 -11,15 -15,18zm136 70l0 -126 -155 0 -1 126 156 0z"/>
   <path class="fil0" d="M242 403l0 -46 29 0 0 47 -7 -10c-2,-2 -5,-7 -8,-9l-14 18zm-20 70l156 0 0 -126 -156 0 0 126z"/>
   <path class="fil0" d="M329 257l0 -46 29 0 0 45c-2,-1 -13,-14 -13,-17 -5,1 -12,15 -16,18zm-19 70l155 0 1 -126 -156 0 0 126z"/>
   <path class="fil0" d="M155 256l0 -45 28 0 0 46c-1,0 -1,-1 -2,-2l-5 -7c-4,-4 -5,-8 -9,-9 0,3 -4,6 -5,9 -2,2 -5,7 -7,8zm-20 71l155 0 0 -126 -155 0 0 126z"/>
   <path class="fil0" d="M135 201l155 0 0 126 -155 0 0 -126zm-1 127l157 0 0 -128 -157 0 0 128z"/>
   <path class="fil0" d="M310 201l156 0 -1 126 -155 0 0 -126zm-1 127l157 0 0 -128 -157 0 0 128z"/>
   <path class="fil0" d="M222 347l156 0 0 126 -156 0 0 -126zm-1 127l158 0 0 -128 -158 0 0 128z"/>
   <path class="fil0" d="M553 473l-156 0 1 -126 155 0c-5,-3 -138,-1 -156,-1l0 128 137 0c3,0 6,0 9,0l2 0 6 0c2,-1 1,0 2,-1z"/>
   <path class="fil0" d="M47 473l1 1c1,0 1,0 2,0l153 0 0 0 0 -128c-18,0 -151,-2 -156,1l156 0 -1 126 -155 0z"/>
   <path class="fil0" d="M149 140l34 0 0 20 -34 0 0 -20zm-15 34l63 0 0 -48 -63 0 0 48z"/>
   <path class="fil0" d="M417 140l34 0 0 20 -34 0 0 -20zm-14 34l63 0 0 -48 -63 0 0 48z"/>
   <path class="fil0" d="M272 140l0 20 -34 1c-1,-4 -1,-18 0,-21 3,0 32,-1 34,0zm-48 34l62 0 0 -48 -62 0 0 48z"/>
   <path class="fil0" d="M328 140l34 0c1,3 1,17 0,21 -3,0 -32,0 -34,-1l0 -20zm-14 34l62 0 0 -48 -62 0 0 48z"/>
   <path class="fil0" d="M272 160l-33 0 0 -20 33 0c-2,-1 -31,0 -34,0 -1,3 -1,17 0,21l34 -1z"/>
   <path class="fil0" d="M328 160c2,1 31,1 34,1 1,-4 1,-18 0,-21l-34 0 33 0 0 20 -33 0z"/>
  </g>
 </g>
</svg>
