<?xml version="1.0" encoding="UTF-8"?>
<!DOCTYPE svg PUBLIC "-//W3C//DTD SVG 1.1//EN" "http://www.w3.org/Graphics/SVG/1.1/DTD/svg11.dtd">
<!-- Creator: CorelDRAW X7 -->
<svg xmlns="http://www.w3.org/2000/svg" xml:space="preserve" width="0.599992in" height="0.599992in" version="1.1" style="shape-rendering:geometricPrecision; text-rendering:geometricPrecision; image-rendering:optimizeQuality; fill-rule:evenodd; clip-rule:evenodd"
viewBox="0 0 600 600"
 xmlns:xlink="http://www.w3.org/1999/xlink">
 <defs>
  <style type="text/css">
   <![CDATA[
    .fil0 {fill:#383E4F}
   ]]>
  </style>
 </defs>
 <g id="Layer_x0020_1">
  <metadata id="CorelCorpID_0Corel-Layer"/>
  <g id="_912773024">
   <path class="fil0" d="M465 506l21 21 -21 0 0 -21zm-330 0l0 21 -21 0 21 -21zm342 -12l21 0 0 20 -21 -20zm-375 21l0 -21 21 0 -21 21zm363 -58l21 20 -21 0 0 -20zm-330 -1l0 21 -21 0 21 -21zm342 -11l21 -1 0 21 -21 -20zm-375 20l0 -21 21 0 -21 21zm363 -58l21 21 -21 0 0 -21zm-330 0l0 21 -21 0 21 -21zm342 -12l21 0 0 20 -21 -20zm-375 21l0 -21 21 0 -21 21zm363 -58l21 20 -21 0 0 -20zm-330 0l0 20 -21 0 21 -20zm342 -12l21 -1 0 21 -21 -20zm-375 20l0 -21 21 0 -21 21zm363 -58l21 21 -21 0 0 -21zm-330 0l0 21 -21 0 21 -21zm342 -12l21 0 0 21 -21 -21zm-375 21l0 -21 21 0 -21 21zm363 -58l21 20 -21 0 0 -20zm-330 0l0 20 -21 0 21 -20zm342 -12l21 -1 0 21 -21 -20zm-375 20l0 -21 21 0 -21 21zm363 -83c7,3 28,15 33,16l0 30 -33 0 0 -46zm-363 16c7,-2 26,-13 33,-16l0 46 -33 0 0 -30zm190 30l-25 0 0 -83 -16 0 0 83 -25 0 0 -58 -17 0 0 58 -24 0 0 -33 -17 0 0 33 -16 0 0 -53c0,-4 20,-12 26,-15 4,-2 5,-4 9,-6l38 -19c8,-4 72,-38 75,-38 3,0 81,41 93,48l38 19c3,2 17,7 17,11l0 53 -16 0 0 -33 -17 0 0 33 -24 0 0 -58 -17 0 0 58 -25 0 0 -83 -16 0 0 83 -25 0 0 -99 -16 0 0 99zm-231 -51l0 43 25 -13c0,105 1,216 0,321 -1,8 0,13 8,13l51 0c3,0 7,-3 7,-6l0 -291 296 0 0 289c0,4 3,8 7,8l51 0c7,0 9,-5 8,-12l0 -322 25 13 0 -43c-6,-1 -23,-11 -29,-14 -10,-6 -20,-10 -30,-16l-119 -61c-16,-9 -41,-20 -56,-29 -7,-3 -1,-4 -19,5l-75 38c-6,3 -10,6 -15,8 -5,3 -10,5 -15,8 -6,3 -10,5 -15,8l-75 38c-8,4 -23,14 -30,15z"/>
   <path class="fil0" d="M366 477l33 0 0 17 -33 0 0 -17zm-82 0l32 0 0 17 -32 0 0 -17zm-83 0l33 0 0 17 -33 0 0 -17zm165 -82l33 0 0 16 -33 0 0 -16zm-82 0l32 0 0 16 -32 0 0 -16zm82 -83l33 0 0 17 -33 0 0 -17zm-25 58l-82 0 0 83 -83 0 0 82 248 0 0 -247 -83 0 0 82z"/>
  </g>
 </g>
</svg>
